<?xml version="1.0" encoding="utf-8"?>
<!-- Generator: Adobe Illustrator 23.0.3, SVG Export Plug-In . SVG Version: 6.00 Build 0)  -->
<svg version="1.1" id="Capa_1" xmlns="http://www.w3.org/2000/svg" xmlns:xlink="http://www.w3.org/1999/xlink" x="0px" y="0px"
	 viewBox="0 0 343.3 148.5" style="enable-background:new 0 0 343.3 148.5;" xml:space="preserve">
<style type="text/css">
	.st0{fill:#FFFFFF;}
</style>
<g>
	<path class="st0" d="M136.4,68.8l-6.9-3.2l-13,8.3l3.5,1.6L82.2,99.9c-0.1,0-0.4,0.2-1,0.2c-0.6,0-1.1-0.1-1.6-0.3l-32.8-15
		l4.4-2.8l-11.3-5.2l-7.8,5c-1.4,0.9-2.1,2.3-2,3.7c0.1,1.7,1.3,3.2,3.3,4.1l44.2,20.2c1.3,0.6,2.8,0.9,4.4,0.9
		c1.7,0,3.3-0.4,4.5-1.1l51.2-32.9c1.4-0.9,2.1-2.3,2-3.7C139.6,71.2,138.4,69.7,136.4,68.8z"/>
	<path class="st0" d="M136.4,89l-6.9-3.2l-13,8.3l3.5,1.6l-37.9,24.3c-0.1,0-0.4,0.2-1,0.2c-0.6,0-1.1-0.1-1.6-0.3l-32.8-15l4.4-2.8
		l-11.3-5.2l-7.8,5c-1.4,0.9-2.1,2.3-2,3.7c0.1,1.7,1.3,3.2,3.3,4.1L77.6,130c1.3,0.6,2.8,0.9,4.4,0.9c1.7,0,3.3-0.4,4.5-1.1
		l51.2-32.9c1.4-0.9,2.1-2.3,2-3.7C139.6,91.4,138.4,89.9,136.4,89z"/>
	<path class="st0" d="M136.4,47.9l-6.9-3.2l-13,8.3l3.5,1.6L82.2,79c-0.1,0-0.4,0.2-1,0.2c-0.6,0-1.1-0.1-1.6-0.3l-32.8-15l4.4-2.8
		l-11.3-5.2l-7.8,5c-1.4,0.9-2.1,2.3-2,3.7c0.1,1.7,1.3,3.2,3.3,4.1l44.2,20.2c1.3,0.6,2.8,0.9,4.4,0.9c1.7,0,3.3-0.4,4.5-1.1
		l51.2-32.9c1.4-0.9,2.1-2.3,2-3.7C139.6,50.3,138.4,48.8,136.4,47.9z"/>
	<g>
		<path class="st0" d="M78.1,60l-7.1-3.2c-0.3-0.1-0.6-0.2-1-0.2c-0.3,0-0.7,0-1,0.3l-5.4,3.5c-0.3,0.2-0.5,0.5-0.5,0.9
			c0,0.4,0.3,0.7,0.8,1l7.1,3.2c0.3,0.1,0.6,0.2,1,0.2c0.3,0,0.7,0,1-0.3l5.4-3.5c0.3-0.2,0.5-0.5,0.5-0.9
			C78.9,60.6,78.6,60.2,78.1,60"/>
		<path class="st0" d="M89.6,52.8l-7.1-3.2c-0.3-0.1-0.6-0.2-1-0.2c-0.3,0-0.7,0-1,0.3l-5.4,3.5c-0.3,0.2-0.5,0.5-0.5,0.9
			c0,0.4,0.3,0.7,0.8,1l7.1,3.2c0.3,0.1,0.6,0.2,1,0.2c0.3,0,0.7,0,1-0.3l5.4-3.5c0.3-0.2,0.5-0.5,0.5-0.9
			C90.4,53.4,90.1,53,89.6,52.8"/>
		<path class="st0" d="M101.5,46.5c0-0.4-0.3-0.7-0.8-1l-7.1-3.2c-0.3-0.1-0.6-0.2-1-0.2c-0.3,0-0.7,0-1,0.3l-5.4,3.5
			c-0.3,0.2-0.5,0.5-0.5,0.9c0,0.4,0.3,0.7,0.8,1l7.1,3.2c0.3,0.1,0.6,0.2,1,0.2c0.3,0,0.7,0,1-0.3l5.4-3.5
			C101.3,47.2,101.5,46.9,101.5,46.5"/>
		<path class="st0" d="M69.5,51.2c0.3,0,0.7,0,1-0.3l5.4-3.5c0.3-0.2,0.5-0.5,0.5-0.9c0-0.4-0.3-0.7-0.8-1l-7.1-3.2
			c-0.3-0.1-0.6-0.2-1-0.2c-0.3,0-0.7,0-1,0.3l-5.4,3.5c-0.3,0.2-0.5,0.5-0.5,0.9c0,0.4,0.3,0.7,0.8,1l7.1,3.2
			C68.9,51.1,69.2,51.2,69.5,51.2"/>
		<path class="st0" d="M80.1,35.2c-0.3-0.1-0.6-0.2-1-0.2c-0.3,0-0.7,0-1,0.3l-5.4,3.5c-0.3,0.2-0.5,0.5-0.5,0.9
			c0,0.4,0.3,0.7,0.8,1l7.1,3.2c0.3,0.1,0.6,0.2,1,0.2c0.3,0,0.7,0,1-0.3l5.4-3.5c0.3-0.2,0.5-0.5,0.5-0.9c0-0.4-0.3-0.7-0.8-1
			L80.1,35.2z"/>
		<path class="st0" d="M83.3,32.4c0,0.4,0.3,0.7,0.8,1l7.1,3.2c0.3,0.1,0.6,0.2,1,0.2c0.3,0,0.7,0,1-0.3l5.4-3.5
			c0.3-0.2,0.5-0.5,0.5-0.9c0-0.4-0.3-0.7-0.8-1L91.2,28c-0.3-0.1-0.6-0.2-1-0.2c-0.3,0-0.7,0-1,0.3l-5.4,3.5
			C83.5,31.7,83.3,32,83.3,32.4"/>
		<path class="st0" d="M67.5,37.2c0-0.4-0.3-0.7-0.8-1L59.6,33c-0.3-0.1-0.6-0.2-1-0.2c-0.3,0-0.7,0-1,0.3l-5.4,3.5
			c-0.3,0.2-0.5,0.5-0.5,0.9c0,0.4,0.3,0.7,0.8,1l7.1,3.2c0.3,0.1,0.6,0.2,1,0.2c0.3,0,0.7,0,1-0.3l5.4-3.5
			C67.3,37.9,67.5,37.6,67.5,37.2"/>
		<path class="st0" d="M75.1,24l7.1,3.2c0.3,0.1,0.6,0.2,1,0.2c0.3,0,0.7,0,1-0.3l5.4-3.5c0.3-0.2,0.5-0.5,0.5-0.9
			c0-0.4-0.3-0.7-0.8-1l-7.1-3.2c-0.3-0.1-0.6-0.2-1-0.2c-0.3,0-0.7,0-1,0.3l-5.4,3.5c-0.3,0.2-0.5,0.5-0.5,0.9
			C74.3,23.4,74.6,23.8,75.1,24"/>
		<path class="st0" d="M108.6,55.5l-7.1-3.2c-0.3-0.1-0.6-0.2-1-0.2c-0.3,0-0.7,0-1,0.3l-5.4,3.5c-0.3,0.2-0.5,0.5-0.5,0.9
			c0,0.4,0.3,0.7,0.8,1l7.1,3.2c0.3,0.1,0.6,0.2,1,0.2c0.3,0,0.7,0,1-0.3l5.4-3.5c0.3-0.2,0.5-0.5,0.5-0.9
			C109.3,56,109,55.7,108.6,55.5"/>
	</g>
	<g>
		<path class="st0" d="M208.9,77.9c2.9-2.7,4.4-6.8,4.4-12.1c0-10-6.5-16.3-16.9-16.3c0,0-25.1,0-25.2,0c-2.7,0-4.9,2.2-4.9,4.9
			c0,2.7,2.2,4.9,4.9,4.9l2.2,0l0,41.6c0,0,0.3-0.1-2.2-0.1c-2.7,0-4.9,2.2-4.9,4.9c0,2.7,2.2,4.9,4.9,4.9c0.1,0,27.1,0.1,27.1,0.1
			c10.6,0,18.1-7.4,18.1-18.1C216.4,87.7,213.8,81.2,208.9,77.9z M183.4,59.2l12.4,0c5,0,7.7,2.3,7.7,6.6c0,3.6-1.7,7.9-6.5,7.9
			l-13.7,0L183.4,59.2z M198.2,101l-14.8,0l0-17.8l14.5,0c5.4,0,8.7,5.5,8.7,9.5C206.6,96.7,203.7,101,198.2,101z"/>
		<path class="st0" d="M310.7,100.2l-2.9,0l0-35.4c0-0.4-0.3-0.7-0.7-0.7l-9.1,0c-0.4,0-0.7,0.3-0.7,0.7l0,45.2
			c0,0.4,0.3,0.7,0.7,0.7l12.6,0c0.4,0,0.7-0.3,0.7-0.7l0-9.1C311.4,100.6,311.1,100.2,310.7,100.2z"/>
		<path class="st0" d="M288,43.5l-12.2,0c-0.4,0-0.7,0.3-0.7,0.7l0,8.8c0,0.4,0.3,0.7,0.7,0.7l2.7,0l0,14.6c-3.4-2.5-8-4-12.8-4
			c-13.2,0-22.7,9.6-22.7,23c0,13.5,9.5,23.2,22.7,23.2c4.7,0,9.3-1.5,12.8-4.2l0,3.7c0,0.4,0.3,0.7,0.7,0.7l8.8,0
			c0.4,0,0.7-0.3,0.7-0.7l0-65.8C288.7,43.8,288.4,43.5,288,43.5z M265.6,74.5c6.2,0,12.8,4.5,12.8,12.7c0,9-6.4,13-12.8,13
			c-7.2,0-12.5-5.5-12.5-13C253.2,79.7,258.3,74.5,265.6,74.5z"/>
		<path class="st0" d="M238.7,100.2l-2.9,0l0-35.4c0-0.4-0.3-0.7-0.7-0.7l-9,0c-0.4,0-0.7,0.3-0.7,0.7l0,45.2c0,0.4,0.3,0.7,0.7,0.7
			l12.6,0c0.4,0,0.7-0.3,0.7-0.7l0-9.1C239.4,100.5,239.1,100.2,238.7,100.2z"/>
		<circle class="st0" cx="230.3" cy="53.8" r="6.3"/>
		<circle class="st0" cx="302.7" cy="54" r="6.3"/>
	</g>
</g>
</svg>
