<?xml version="1.0" encoding="utf-8"?>
<!-- Generator: Adobe Illustrator 24.0.2, SVG Export Plug-In . SVG Version: 6.00 Build 0)  -->
<svg version="1.1" id="Layer_1" xmlns="http://www.w3.org/2000/svg" xmlns:xlink="http://www.w3.org/1999/xlink" x="0px" y="0px"
	 viewBox="0 0 500 500" style="enable-background:new 0 0 500 500;" xml:space="preserve">
<style type="text/css">
	.st0{fill:#EBEBEB;}
	.st1{fill:#FAFAFA;}
	.st2{fill:#E6E6E6;}
	.st3{fill:#FFFFFF;}
	.st4{fill:#F5F5F5;}
	.st5{fill:#F0F0F0;}
	.st6{fill:#407BFF;}
	.st7{opacity:0.8;fill:#FFFFFF;enable-background:new    ;}
	.st8{opacity:0.4;fill:#407BFF;enable-background:new    ;}
	.st9{clip-path:url(#SVGID_2_);}
	.st10{fill:#B55B52;}
	.st11{opacity:0.2;enable-background:new    ;}
	.st12{fill:#263238;}
	.st13{fill:#A02724;}
	.st14{clip-path:url(#SVGID_4_);}
	.st15{fill:#FFB573;}
	.st16{fill:#ED893E;}
	.st17{opacity:0.4;enable-background:new    ;}
	.st18{font-family:'ZillaSlab-Bold';}
	.st19{font-size:18.8136px;}
</style>
<g id="freepik--background-complete--inject-103">
	<rect y="382.4" class="st0" width="500" height="0.2"/>
	<rect x="90.5" y="391.9" class="st0" width="24.9" height="0.2"/>
	<rect x="152.3" y="389.2" class="st0" width="27.5" height="0.2"/>
	<rect x="47.7" y="401.2" class="st0" width="58.1" height="0.2"/>
	<rect x="428.3" y="399.5" class="st0" width="21.6" height="0.2"/>
	<rect x="214.8" y="391.1" class="st0" width="27.9" height="0.2"/>
	<rect x="300.7" y="395.3" class="st0" width="70.2" height="0.2"/>
	<path class="st0" d="M237,337.8H43.9c-3.1,0-5.7-2.6-5.7-5.7V60.7c0-3.1,2.6-5.7,5.7-5.7H237c3.2,0,5.7,2.6,5.7,5.7c0,0,0,0,0,0
		v271.4C242.7,335.2,240.2,337.8,237,337.8z M43.9,55.2c-3,0-5.5,2.4-5.5,5.5v271.4c0,3,2.4,5.5,5.5,5.5H237c3,0,5.5-2.4,5.5-5.5
		V60.7c0-3-2.4-5.5-5.5-5.5H43.9z"/>
	<path class="st0" d="M453.3,337.8H260.2c-3.2,0-5.7-2.6-5.7-5.7V60.7c0-3.1,2.6-5.7,5.7-5.7h193.1c3.1,0,5.7,2.5,5.7,5.7v271.4
		C459,335.2,456.5,337.8,453.3,337.8z M260.2,55.2c-3,0-5.5,2.4-5.5,5.5v271.4c0,3,2.4,5.5,5.5,5.5h193.1c3,0,5.5-2.4,5.5-5.5V60.7
		c0-3-2.4-5.5-5.5-5.5H260.2z"/>
	<path class="st0" d="M31.9,64.6H321c4.7,0,8.6,3.9,8.6,8.6v178.1c0,4.7-3.9,8.6-8.6,8.6H31.9c-4.7,0-8.6-3.9-8.6-8.6V73.2
		C23.2,68.5,27.1,64.6,31.9,64.6z"/>
	<rect x="23.2" y="74.5" class="st1" width="306.4" height="157.4"/>
	<path class="st2" d="M231.3,134.1c0-4.1,3.3-7.3,7.4-7.3h229c4.1,0,7.3,3.3,7.4,7.3v23.7H231.3V134.1z"/>
	<circle class="st3" cx="290.7" cy="142.3" r="5.6"/>
	<circle class="st3" cx="271" cy="142.3" r="5.6"/>
	<circle class="st3" cx="251.3" cy="142.3" r="5.6"/>
	<path class="st4" d="M467.6,285.2h-229c-4.1,0-7.3-3.3-7.4-7.4v-120h243.7v120C474.9,281.9,471.6,285.2,467.6,285.2z"/>
	<path class="st5" d="M198.6,175.1c0-4.1,3.3-7.3,7.4-7.4h229c4.1,0,7.3,3.3,7.4,7.4v23.7H198.6V175.1z"/>
	<circle class="st2" cx="258" cy="183.2" r="5.6"/>
	<circle class="st2" cx="238.3" cy="183.2" r="5.6"/>
	<circle class="st2" cx="218.6" cy="183.2" r="5.6"/>
	<path class="st1" d="M434.9,326.1h-229c-4.1,0-7.3-3.3-7.4-7.4v-120h243.7v120C442.2,322.8,438.9,326.1,434.9,326.1z"/>
	<path class="st1" d="M165.8,216c0-4.1,3.3-7.3,7.4-7.4h229c4.1,0,7.3,3.3,7.4,7.4v23.7H165.8V216z"/>
	<circle class="st5" cx="225.2" cy="224.2" r="5.6"/>
	<circle class="st5" cx="205.6" cy="224.2" r="5.6"/>
	<circle class="st5" cx="185.9" cy="224.2" r="5.6"/>
	<path class="st2" d="M402.1,367.1h-229c-4.1,0-7.3-3.3-7.4-7.4v-120h243.7v120C409.5,363.8,406.2,367,402.1,367.1z"/>
</g>
<g id="freepik--Shadow--inject-103">
	<ellipse id="freepik--path--inject-103" class="st4" cx="250" cy="416.2" rx="193.9" ry="11.3"/>
</g>
<g id="freepik--Page--inject-103">
	<rect x="182.3" y="82.5" class="st6" width="8.8" height="1"/>
	<rect x="150.2" y="82.5" class="st6" width="21.7" height="1"/>
	<path class="st6" d="M90.3,86h319.3c6.6,0,12,5.4,12,12v275.7l0,0H78.3l0,0V98C78.3,91.4,83.7,86,90.3,86z"/>
	<rect x="78.3" y="104" class="st7" width="343.3" height="265.1"/>
	<rect x="78.3" y="104" class="st8" width="343.3" height="58.3"/>
	<rect x="400.2" y="109.6" class="st8" width="14.3" height="14.3"/>
	<rect x="379" y="109.6" class="st8" width="14.3" height="14.3"/>
	<rect x="357.7" y="109.6" class="st8" width="14.3" height="14.3"/>
	<rect x="129" y="359.5" class="st8" width="14.3" height="1.4"/>
	<rect x="107.7" y="359.5" class="st8" width="14.3" height="1.4"/>
	<rect x="86.4" y="359.5" class="st8" width="14.3" height="1.4"/>
	<circle class="st6" cx="149.2" cy="225.1" r="50"/>
	<circle class="st3" cx="149.2" cy="225.1" r="47.4"/>
	<g>
		<defs>
			<circle id="SVGID_1_" cx="149.2" cy="225.1" r="47.4"/>
		</defs>
		<clipPath id="SVGID_2_">
			<use xlink:href="#SVGID_1_"  style="overflow:visible;"/>
		</clipPath>
		<g class="st9">
			<path class="st10" d="M151.6,235l4-8.3c0,0,20.9,6.6,24,8.1c-0.1-5.2,2.6-15,2.9-20.4c0.8-0.8,2.7-2.6,3.7-2.6
				c3,7,2.4,31-3.6,31.4C173.2,243.9,151.6,235,151.6,235z"/>
			<path class="st6" d="M149,233.7c2.4,5.6,22.2,10.7,22.2,10.7l4-12.2c0,0-7.5-5.7-15.4-7.6C151.8,222.7,146.3,227.5,149,233.7z"/>
			<path class="st11" d="M149.4,234.4c2.4,3.6,11.1,6.8,16.8,8.6C162.3,235.6,157.2,231.5,149.4,234.4z"/>
			<path class="st10" d="M182.5,215.5l-3.2-4.1l5.9-3.3c1.2,1.8,1.8,3.8,1.7,5.9L182.5,215.5z"/>
			<polygon class="st10" points="178.4,205.8 184.1,204.8 185.2,208.1 179.3,211.4 			"/>
			<path class="st6" d="M160.3,225.1c0,0,8.1,19.4,1.7,55.6h-31.5c-0.4-5.3,2.3-31-3.4-55.9c3.8-0.7,7.6-1.2,11.5-1.5
				c4.9-0.3,9.7-0.3,14.6,0C158.4,223.7,160.3,225.1,160.3,225.1z"/>
			<path class="st11" d="M134.8,230.9c0.7,4.1-0.4,13.9-4,25.2c-0.2-9.7-1.2-19.3-3.1-28.9l0,0C130,226.9,134.1,227,134.8,230.9z"/>
			<path class="st10" d="M140.2,209.6c1,4.7,1.6,10.5-1.6,13.7c0,0,2,4.8,10.7,4.8c8,0,3.9-4.8,3.9-4.8c-5.3-1.2-5.2-7.7-4.3-11.4
				L140.2,209.6z"/>
			<path class="st3" d="M149.8,227.7l1.9,2.1c0.1,0.1,0.2,0.4,0.1,0.5l-0.6,1.9c-0.1,0.2-0.3,0.4-0.5,0.4l-2,0.1
				c-0.2,0-0.4-0.1-0.5-0.2l-1.2-1.8c-0.1-0.2-0.1-0.5,0-0.7l2-2.2C149.2,227.4,149.6,227.4,149.8,227.7z"/>
			<path class="st12" d="M149.4,227.2c-1,1.6-1.5,3.5-1.6,5.4c0,0-11-3.9-10.7-9.5c0,0,1.5-0.9,2.5-1.7
				C139.7,221.4,140.1,224.9,149.4,227.2z"/>
			<path class="st12" d="M149.4,227.2c1,1.5,1.8,3.2,2.2,5c0,0,4.9-3.4,3.2-8.9c-0.9-0.4-1.9-0.7-2.8-0.9
				C152.1,222.4,152.8,226,149.4,227.2z"/>
			<path class="st3" d="M150.3,232.2c0,0,3.1,23,3.2,27c0,3.8-0.6,7.5-1.8,11.2c0,0-2.1-4.1-2.5-11.3c-0.4-7.3,0.1-22.8-0.1-26.8
				L150.3,232.2z"/>
			<path class="st11" d="M148.9,211.9c-0.6,2.5-0.6,5.2,0.2,7.7c-0.8-0.1-1.6-0.4-2.4-0.7c-3-1.4-4.5-3.6-6.1-6.8
				c-0.1-0.8-0.3-1.6-0.5-2.4L148.9,211.9z"/>
			<path class="st10" d="M157.2,208.6c-0.7,1.4-2,2.5-3.5,2.9c-2,0.6-3.1-1.2-2.6-3.2c0.5-1.8,2-4.2,4.1-3.9
				c1.5,0.2,2.6,1.7,2.3,3.2C157.5,207.9,157.4,208.3,157.2,208.6z"/>
			<path class="st11" d="M157.2,208.6c-0.7,1.4-2,2.5-3.5,2.9c-2,0.6-3.1-1.2-2.6-3.2c0.5-1.8,2-4.2,4.1-3.9
				c1.5,0.2,2.6,1.7,2.3,3.2C157.5,207.9,157.4,208.3,157.2,208.6z"/>
			<path class="st12" d="M151.4,204.5c2,1.8,5.6-8.2,1.6-11s-5.5,1-5.4,3.3S148.4,201.8,151.4,204.5z"/>
			<path class="st10" d="M137.8,202.8c0.9,6.4,1.2,10.1,4.6,13.2c5.2,4.6,12.7,1.1,13.7-5.3c0.9-5.8-0.8-15.3-7.2-17.4
				c-4.4-1.5-9.3,0.9-10.8,5.3C137.6,200,137.5,201.4,137.8,202.8z"/>
			<path class="st12" d="M137.4,208.2c1.1,0.7,2.6,2.6,4.9-0.8c0-0.9-2.2-2.4-2.4-4.4c-0.2-2.4-0.7-5-2.7-5.9
				c-4.5-2-5.3,1.8-4.9,4.1S133.9,206,137.4,208.2z"/>
			<path class="st12" d="M136.8,199.4c10.6-1.6,16.8-2,19.9-5.9s-1.7-8.8-7-9.4c-0.4,2.1-5.8,7.5-14,9.8c-1.3,0.4-2.1,1.7-1.7,3
				c0.2,0.6,0.5,1.1,1,1.4C136,199,136.8,199.4,136.8,199.4z"/>
			<path class="st10" d="M135.5,210.1c1,1.3,2.4,2.2,4,2.4c2.1,0.3,2.8-1.6,2-3.5c-0.8-1.7-2.7-3.9-4.7-3.3S134.4,208.5,135.5,210.1
				z"/>
			<path class="st12" d="M147.5,204c0,0.5,0.4,0.9,0.7,0.9s0.6-0.5,0.5-1s-0.4-0.9-0.7-0.9S147.4,203.4,147.5,204z"/>
			<path class="st12" d="M153.3,203.6c0.1,0.5,0.4,0.9,0.7,0.9s0.6-0.5,0.5-1s-0.4-0.9-0.7-0.9S153.2,203,153.3,203.6z"/>
			<path class="st13" d="M151.4,204c0.8,1.6,1.7,3,2.8,4.3c-0.7,0.6-1.6,0.8-2.4,0.6L151.4,204z"/>
			<path class="st12" d="M150.5,210.4c0.1,0,0.1-0.1,0.1-0.1c0,0,0,0,0,0c0-0.1-0.1-0.1-0.2-0.1c0,0,0,0,0,0
				c-1.3,0.1-2.6-0.4-3.4-1.4c0-0.1-0.1-0.1-0.2,0c-0.1,0-0.1,0.1,0,0.2c0,0,0,0,0,0C147.7,210,149.1,210.5,150.5,210.4z"/>
			<path class="st12" d="M145.6,202.2c0.1,0,0.2-0.1,0.2-0.1c0.4-0.7,1.1-1.1,1.8-1.2c0.2,0,0.3-0.1,0.3-0.3c0,0,0,0,0,0
				c0-0.2-0.1-0.3-0.3-0.3c-1,0.1-1.8,0.6-2.3,1.4c-0.1,0.1,0,0.3,0.1,0.4c0,0,0,0,0,0C145.4,202.2,145.5,202.2,145.6,202.2z"/>
			<path class="st12" d="M155.7,201.3l0.1-0.1c0.1-0.1,0.2-0.3,0.1-0.4c0,0,0,0,0,0c-0.5-0.8-1.4-1.4-2.4-1.4
				c-0.2,0-0.3,0.1-0.3,0.3c0,0,0,0,0,0c0,0.2,0.1,0.3,0.3,0.3l0,0c0.8,0.1,1.5,0.5,1.9,1.1C155.5,201.3,155.6,201.3,155.7,201.3z"
				/>
			<path class="st10" d="M123.6,233.3l8.1,4.8c0,0-10.2,20-9.1,23.1c1.5,4.2,3.8,13.4,6.5,18c-0.3,1-1.8,3.4-2.6,3.9
				c-6.4-4.3-13.5-18.5-13.5-22.5C113,251.3,123.6,233.3,123.6,233.3z"/>
			<path class="st6" d="M127.2,224.7c-6.1,0.9-12.5,22-12.5,22l14.3,4.6c2.6-4.8,4.8-9.8,6.6-14.9
				C138.3,228.6,133.7,223.8,127.2,224.7z"/>
			<path class="st10" d="M127.6,278.3l6.1-0.4l-3.1,6.7c0,0-5.4,0.2-6.3-3.9L127.6,278.3z"/>
			<polygon class="st10" points="138.7,281 135.6,287 130.6,284.6 133.7,277.9 			"/>
		</g>
	</g>
	<circle class="st6" cx="350.8" cy="309.4" r="50"/>
	<circle class="st3" cx="350.8" cy="309.4" r="47.4"/>
	<g>
		<defs>
			<circle id="SVGID_3_" cx="350.8" cy="309.4" r="47.4"/>
		</defs>
		<clipPath id="SVGID_4_">
			<use xlink:href="#SVGID_3_"  style="overflow:visible;"/>
		</clipPath>
		<g class="st14">
			<path class="st12" d="M348.6,273.4c-7.1-0.6-11.5,10.3-10.1,27c9,5.1,19.3,0,27.6,4.1C373.8,292.9,371.7,266.6,348.6,273.4z"/>
			<path class="st15" d="M337.5,321.8c-1,3.8-2.5,7.5-4.3,10.9c-1,1.9-2.2,3.7-3.7,5.2c-0.4,0.5-0.9,0.9-1.4,1.3
				c-0.8,0.7-1.7,1.1-2.7,1.4c-0.8,0.2-1.5,0.1-2.3-0.1c-0.7-0.2-1.3-0.5-1.8-1c-0.7-0.6-1.2-1.3-1.6-2.1c-0.5-1.1-0.9-2.2-1.1-3.3
				c-0.2-1-0.4-2-0.5-3c-0.2-2-0.3-3.9-0.4-5.8c-0.1-3.8,0.1-7.5,0.5-11.2l3.7,0.1c0.3,3.6,0.7,7.2,1.2,10.8
				c0.2,1.8,0.5,3.5,0.9,5.2c0.2,0.8,0.4,1.6,0.6,2.4c0.2,0.6,0.4,1.3,0.8,1.9c0.1,0.2,0.2,0.3,0.1,0.1c-0.2-0.1-0.4-0.3-0.6-0.3
				c-0.3-0.1-0.6-0.1-0.9-0.1c-0.5,0.1-0.5,0.2-0.3,0c0.2-0.2,0.4-0.4,0.6-0.7c0.9-1.2,1.7-2.6,2.3-4c0.7-1.5,1.4-3.1,1.9-4.7
				c0.6-1.6,1.2-3.3,1.6-4.9L337.5,321.8z"/>
			<path class="st12" d="M332.6,312.1c-3,0.8-5.1,13.1-5.1,13.1l11.5,7.8c0,0,4.7-14.6,2.4-17.9S337,311,332.6,312.1z"/>
			<polygon class="st11" points="332.9,314.9 330.6,327.4 335.2,330.5 			"/>
			<path class="st15" d="M322.3,315.1l1.5-7.7l-6.1,1.8c0,0-0.6,5.3,1.9,7.1L322.3,315.1z"/>
			<polygon class="st15" points="323.2,304.1 318.2,306.2 317.8,309.2 323.9,307.5 			"/>
			<path class="st12" d="M332.6,312.1c0,0-3.5,1.2,3.5,43.9h29.5c-0.5-12-0.5-19.5,5.2-44.1c-4.1-0.9-8.3-1.4-12.5-1.6
				c-4.5-0.3-9-0.3-13.4,0C339.1,310.8,332.6,312.1,332.6,312.1z"/>
			<path class="st11" d="M368.4,321.7c-2.7,0.7-5.2,3.6-4.9,9c0.2,2.4,1,4.8,2.5,6.8c0.5-4.1,1.3-9,2.5-15.1L368.4,321.7z"/>
			<path class="st1" d="M346.5,319.8c0,0,4.8,4,4.8,8.2c4-3,9.5-11,10-16.1c0.1-0.8-0.5-1.6-1.4-1.7c0,0,0,0-0.1,0
				c-0.4,0-0.7-0.1-1.1-0.1c-0.3-0.1-0.6,0-0.9,0.2L346.5,319.8z"/>
			<path class="st1" d="M346.5,319.8c-2.7,2-4.4,4.9-4.9,8.2c-4.1-3-2.4-12.2-0.1-16.6c0.4-0.7,1-1.2,1.8-1.2c0.6-0.1,1-0.1,1.4-0.2
				c0.2,0,0.4,0.1,0.5,0.3c0,0,0,0,0,0L346.5,319.8z"/>
			<path class="st15" d="M357,295.2c-0.8,4.3-1.7,12.2,1.3,15.1c-3.3,3.9-7.3,7.1-11.9,9.5c-6-4.8-1.6-9.5-1.6-9.5
				c4.8-1.1,4.7-4.7,3.9-8.1L357,295.2z"/>
			<path class="st11" d="M353.6,298l-4.9,4.2c0.2,0.8,0.3,1.6,0.4,2.4c1.8-0.3,4.7-1.8,5.1-3.8C354.3,299.8,354.1,298.9,353.6,298z"
				/>
			<path class="st15" d="M364.2,288.2c-2,6.9-2.7,9.9-7,12.8c-6.5,4.2-14.6,0.3-14.8-7.1c-0.1-6.7,3.2-16.9,10.7-18.2
				c5.4-0.9,10.5,2.7,11.4,8C364.8,285.2,364.7,286.8,364.2,288.2z"/>
			<path class="st12" d="M358.9,281.8c1.2,6.9,1.7,9.6,4.1,11.4s4.7-6.4,2.9-9.6S358.9,281.8,358.9,281.8z"/>
			<path class="st12" d="M347.4,275.3c-1.5,1.7,1.5,5.4,4.5,6.6c-0.2-0.4-0.3-0.8-0.4-1.2c2.1,1.4,4.5,2.5,7,3
				c-0.3-0.4-0.5-0.8-0.5-1.2c0-0.3,7.2,4.4,8.3,1s-2.5-7.9-8-9.4C353.5,272.9,349.2,273.1,347.4,275.3z"/>
			<path class="st12" d="M352.6,287.6c-0.1,0.6-0.5,1-0.9,0.9s-0.6-0.6-0.4-1.2s0.5-1,0.9-0.9S352.7,287,352.6,287.6z"/>
			<path class="st12" d="M346.1,286.2c-0.1,0.6-0.5,1-0.9,0.9s-0.6-0.6-0.5-1.2s0.5-1,0.9-0.9S346.2,285.6,346.1,286.2z"/>
			<path class="st12" d="M345.8,285.1l-1.3-0.7C344.5,284.4,345,285.6,345.8,285.1z"/>
			<path class="st16" d="M347.9,287.6c-0.8,1.2-1.8,2.3-2.9,3.2c0.5,0.6,1.2,0.9,2,0.8L347.9,287.6z"/>
			<path class="st12" d="M349.6,294.6c-0.3,0-0.6-0.1-0.9-0.1c-0.1,0-0.1-0.1-0.1-0.2c0-0.1,0.1-0.2,0.2-0.1c0,0,0,0,0,0
				c1.4,0.4,3,0,4.1-1c0.1-0.1,0.2-0.1,0.2,0c0.1,0.1,0.1,0.2,0,0.2C352.2,294.3,350.9,294.7,349.6,294.6z"/>
			<path class="st15" d="M364.7,295.2c-0.8,1.2-2,1.9-3.4,2.2c-1.8,0.3-2.6-1.3-1.9-3c0.6-1.5,2.2-3.4,4-3c1.3,0.3,2,1.6,1.7,2.9
				C365.1,294.6,364.9,294.9,364.7,295.2z"/>
			<path class="st12" d="M355.8,286.4c-0.1,0-0.3-0.1-0.3-0.3c-0.3-1.1-1.1-2-2.2-2.5c-0.2-0.1-0.3-0.3-0.2-0.4s0.3-0.3,0.4-0.2
				c0,0,0.1,0,0.1,0c1.2,0.6,2.2,1.7,2.5,3c0,0.2-0.1,0.4-0.3,0.4L355.8,286.4z"/>
			<path class="st12" d="M344.8,281.6c-0.1,0-0.2-0.1-0.3-0.2c-0.1-0.2-0.1-0.4,0.1-0.5c0.9-0.6,2.1-0.8,3.1-0.4
				c0.2,0.1,0.3,0.3,0.2,0.4c0,0,0,0,0,0c-0.1,0.2-0.3,0.2-0.4,0.2c0,0,0,0,0,0c-0.8-0.3-1.7-0.2-2.5,0.4
				C345,281.6,344.9,281.6,344.8,281.6z"/>
			<path class="st12" d="M352.3,286.5l-1.3-0.7C351,285.8,351.5,287,352.3,286.5z"/>
			<path class="st6" d="M366.1,354.4l0.8,2.6c0.1,0.2-0.1,0.4-0.5,0.4h-30.4c-0.3,0-0.5-0.1-0.5-0.3l-0.3-2.6c0-0.2,0.2-0.3,0.5-0.3
				h29.9C365.8,354.1,366,354.2,366.1,354.4z"/>
			<path class="st11" d="M366.1,354.4l0.8,2.6c0.1,0.2-0.1,0.4-0.5,0.4h-30.4c-0.3,0-0.5-0.1-0.5-0.3l-0.3-2.6
				c0-0.2,0.2-0.3,0.5-0.3h29.9C365.8,354.1,366,354.2,366.1,354.4z"/>
			<path class="st6" d="M362,357.7h0.8c0.2,0,0.3-0.1,0.3-0.2l-0.4-3.4c0-0.1-0.1-0.2-0.3-0.2h-0.8c-0.2,0-0.3,0.1-0.3,0.2l0.4,3.4
				C361.7,357.6,361.8,357.7,362,357.7z"/>
			<path class="st17" d="M362,357.7h0.8c0.2,0,0.3-0.1,0.3-0.2l-0.4-3.4c0-0.1-0.1-0.2-0.3-0.2h-0.8c-0.2,0-0.3,0.1-0.3,0.2l0.4,3.4
				C361.7,357.6,361.8,357.7,362,357.7z"/>
			<path class="st6" d="M338.2,357.7h0.8c0.2,0,0.3-0.1,0.3-0.2l-0.4-3.4c0-0.1-0.1-0.2-0.3-0.2h-0.8c-0.2,0-0.3,0.1-0.3,0.2
				l0.4,3.4C337.9,357.6,338,357.7,338.2,357.7z"/>
			<path class="st17" d="M338.2,357.7h0.8c0.2,0,0.3-0.1,0.3-0.2l-0.4-3.4c0-0.1-0.1-0.2-0.3-0.2h-0.8c-0.2,0-0.3,0.1-0.3,0.2
				l0.4,3.4C337.9,357.6,338,357.7,338.2,357.7z"/>
			<path class="st6" d="M350,357.7h0.8c0.2,0,0.3-0.1,0.3-0.2l-0.4-3.4c0-0.1-0.1-0.2-0.3-0.2h-0.8c-0.2,0-0.3,0.1-0.3,0.2l0.4,3.4
				C349.7,357.6,349.9,357.7,350,357.7z"/>
			<path class="st17" d="M350,357.7h0.8c0.2,0,0.3-0.1,0.3-0.2l-0.4-3.4c0-0.1-0.1-0.2-0.3-0.2h-0.8c-0.2,0-0.3,0.1-0.3,0.2l0.4,3.4
				C349.7,357.6,349.9,357.7,350,357.7z"/>
			<path class="st15" d="M347.9,362l-7.2-3.2l2,7.1c0,0,4.6,1,6.5-1.2L347.9,362z"/>
			<path class="st15" d="M374.3,320.7c0.3,2.5,0.6,5,0.9,7.5l0.8,7.5c0.3,2.5,0.5,5,0.7,7.5l0.3,3.8l0.1,0.9c0,0.1,0,0.5,0,0.8
				c0,0.3,0,0.6,0,0.9c-0.1,1.1-0.5,2.1-1,3c-0.9,1.4-2,2.7-3.4,3.7c-1.1,0.9-2.4,1.6-3.6,2.3c-2.4,1.2-4.8,2.2-7.4,3.1
				c-4.9,1.6-9.9,2.9-15,3.7l-0.8-3.6c2.3-0.8,4.7-1.6,7-2.4s4.6-1.8,6.8-2.8c2.2-1,4.3-2.1,6.3-3.3c0.9-0.6,1.8-1.2,2.6-1.9
				c0.6-0.5,1.2-1.2,1.6-1.9c0.1-0.2,0.1-0.3,0.1-0.5l-0.2-1.2l-0.5-3.7c-0.4-2.5-0.7-5-1-7.5l-1-7.5c-0.3-2.5-0.6-5-0.8-7.5
				L374.3,320.7z"/>
			<path class="st12" d="M370.9,311.9c3,0.9,6.5,11.1,6.5,11.1L367,333.7c0,0-5.3-11-4.1-14.8C364.2,314.9,367.5,310.9,370.9,311.9z
				"/>
			<polygon class="st15" points="334.8,360.2 336.8,366.1 342.7,365.9 340.7,358.8 			"/>
		</g>
	</g>
	<path class="st3" d="M346.5,220.3H215.2c-2.4,0-4.3-1.9-4.3-4.3l0,0c0-2.4,1.9-4.3,4.3-4.3c0,0,0,0,0,0h131.3
		c2.4,0,4.3,1.9,4.3,4.3l0,0C350.8,218.4,348.9,220.3,346.5,220.3C346.5,220.3,346.5,220.3,346.5,220.3z"/>
	<path class="st3" d="M316,238.6H215.2c-2.4,0-4.3-1.9-4.3-4.3c0,0,0,0,0,0l0,0c0-2.4,1.9-4.3,4.3-4.3H316c2.4,0,4.3,1.9,4.3,4.3
		l0,0C320.3,236.6,318.4,238.6,316,238.6C316,238.6,316,238.6,316,238.6z"/>
	<path class="st3" d="M234.7,304.7h50.1c2.4,0,4.3-1.9,4.3-4.3l0,0c0-2.4-1.9-4.3-4.3-4.3c0,0,0,0,0,0h-50.1c-2.4,0-4.3,1.9-4.3,4.3
		l0,0C230.4,302.7,232.3,304.7,234.7,304.7C234.7,304.7,234.7,304.7,234.7,304.7z"/>
	<path class="st3" d="M179.1,304.7h34.6c2.4,0,4.3-1.9,4.3-4.3c0,0,0,0,0,0l0,0c0-2.4-1.9-4.3-4.3-4.3h-34.6c-2.4,0-4.3,1.9-4.3,4.3
		l0,0C174.7,302.7,176.7,304.7,179.1,304.7C179.1,304.7,179.1,304.7,179.1,304.7z"/>
	<path class="st3" d="M153.5,322.9h131.3c2.4,0,4.3-1.9,4.3-4.3c0,0,0,0,0,0l0,0c0-2.4-1.9-4.3-4.3-4.3H153.5
		c-2.4,0-4.3,1.9-4.3,4.3c0,0,0,0,0,0l0,0C149.2,321,151.1,322.9,153.5,322.9z"/>
	<path class="st3" d="M99.8,95c0,2.3-1.9,4.2-4.2,4.2c-2.3,0-4.2-1.9-4.2-4.2c0-2.3,1.9-4.2,4.2-4.2c0,0,0,0,0,0
		C98,90.8,99.8,92.7,99.8,95z"/>
	<circle class="st3" cx="109.8" cy="95" r="4.2"/>
	<circle class="st3" cx="124" cy="95" r="4.2"/>
	<text transform="matrix(1 0 0 1 176.4355 138.1229)" class="st3 st18 st19">Tu marca, tu Bidi.</text>
</g>
</svg>
