<?xml version="1.0" encoding="utf-8"?>
<!-- Generator: Adobe Illustrator 24.0.2, SVG Export Plug-In . SVG Version: 6.00 Build 0)  -->
<svg version="1.1" id="Layer_1" xmlns="http://www.w3.org/2000/svg" xmlns:xlink="http://www.w3.org/1999/xlink" x="0px" y="0px"
	 viewBox="0 0 500 500" style="enable-background:new 0 0 500 500;" xml:space="preserve">
<style type="text/css">
	.st0{fill:#EBEBEB;}
	.st1{fill:#F5F5F5;}
	.st2{fill:#F0F0F0;}
	.st3{fill:#E0E0E0;}
	.st4{fill:#FFFFFF;}
	.st5{fill:#E6E6E6;}
	.st6{fill:#FAFAFA;}
	.st7{fill:#407BFF;}
	.st8{opacity:0.3;enable-background:new    ;}
	.st9{opacity:0.7;fill:#FFFFFF;enable-background:new    ;}
	.st10{opacity:0.3;fill:#407BFF;enable-background:new    ;}
	.st11{fill:#FF8B7B;}
	.st12{fill:#263238;}
	.st13{opacity:0.2;enable-background:new    ;}
	.st14{fill:#FF5652;}
</style>
<g id="freepik--background-complete--inject-79">
	<rect y="382.4" class="st0" width="500" height="0.2"/>
	<rect x="416.8" y="398.5" class="st0" width="33.1" height="0.2"/>
	<rect x="322.5" y="401.2" class="st0" width="8.7" height="0.2"/>
	<rect x="396.6" y="389.2" class="st0" width="19.2" height="0.2"/>
	<rect x="52.5" y="390.9" class="st0" width="43.2" height="0.2"/>
	<rect x="104.6" y="390.9" class="st0" width="6.3" height="0.2"/>
	<rect x="131.5" y="395.1" class="st0" width="93.7" height="0.2"/>
	<path class="st0" d="M237,337.8H43.9c-3.1,0-5.7-2.6-5.7-5.7V60.7c0-3.1,2.6-5.7,5.7-5.7H237c3.2,0,5.7,2.6,5.7,5.7c0,0,0,0,0,0
		v271.4C242.7,335.2,240.2,337.8,237,337.8z M43.9,55.2c-3,0-5.5,2.4-5.5,5.5v271.4c0,3,2.4,5.5,5.5,5.5H237c3,0,5.5-2.4,5.5-5.5
		V60.7c0-3-2.4-5.5-5.5-5.5H43.9z"/>
	<path class="st0" d="M453.3,337.8H260.2c-3.2,0-5.7-2.6-5.7-5.7V60.7c0-3.1,2.6-5.7,5.7-5.7h193.1c3.1,0,5.7,2.5,5.7,5.7v271.4
		C459,335.2,456.5,337.8,453.3,337.8z M260.2,55.2c-3,0-5.5,2.4-5.5,5.5v271.4c0,3,2.4,5.5,5.5,5.5h193.1c3,0,5.5-2.4,5.5-5.5V60.7
		c0-3-2.4-5.5-5.5-5.5H260.2z"/>
	<polygon class="st0" points="135,199.6 56.5,199.6 63.5,113.2 128,113.2 	"/>
	<rect x="93.6" y="199.6" class="st1" width="4.3" height="182.8"/>
	<path class="st2" d="M113.2,382.4H78.3c0-2,1.7-3.7,3.7-3.7h27.4C111.5,378.7,113.1,380.4,113.2,382.4z"/>
	<polygon class="st3" points="93.6,206.4 97.9,202.3 97.9,199.6 93.6,199.6 	"/>
	<rect x="165.9" y="77.9" class="st3" width="247.7" height="118.7"/>
	<rect x="169.9" y="77.9" class="st1" width="252.9" height="118.7"/>
	<rect x="183" y="98.7" class="st4" width="226.7" height="77.1"/>
	<path class="st1" d="M436.9,382.4H396c-6.1,0-11-4.9-11-11v-90.2c0-6.1,4.9-11,11-11h40.9c6.1,0,11,4.9,11,11v90.2
		C447.9,377.5,442.9,382.4,436.9,382.4z"/>
	<path class="st5" d="M418,382.4h-40.9c-6.1,0-11-4.9-11-11v-90.2c0-6.1,4.9-11,11-11H418c6.1,0,11,4.9,11,11v90.2
		C429,377.5,424.1,382.4,418,382.4z"/>
	<path class="st1" d="M433.6,270.2h-19.8c-0.6,0-1.1-0.5-1.1-1.1v-0.9c0-0.6,0.5-1.1,1.1-1.1h19.8c0.6,0,1.1,0.5,1.1,1.1v0.9
		C434.7,269.7,434.2,270.2,433.6,270.2z"/>
	<path class="st5" d="M427,270.2h-19.8c-0.6,0-1.1-0.5-1.1-1.1v-0.9c0-0.6,0.5-1.1,1.1-1.1H427c0.6,0,1.1,0.5,1.1,1.1v0.9
		C428.1,269.7,427.6,270.2,427,270.2z"/>
	<path class="st2" d="M414.5,382.4H186.5c-3,0-5.5-2.4-5.5-5.5v-41.4c0-3,2.4-5.5,5.5-5.5h228.1c3,0,5.5,2.4,5.5,5.5v41.4
		C420,380,417.5,382.4,414.5,382.4z"/>
	<path class="st0" d="M164.7,233.4H359c6.1,0,11.5,5.5,12,12.3l5.2,68.3c0.5,6.8-4,12.3-10.1,12.3H171.7c-6.1,0-11.5-5.5-12-12.3
		l-5.1-68.2C154.1,239,158.6,233.4,164.7,233.4z"/>
	<path class="st6" d="M179.7,233.4H374c6.1,0,11.5,5.5,12,12.3l5.2,68.3c0.5,6.8-4,12.3-10.1,12.3H186.7c-6.1,0-11.5-5.5-12-12.3
		l-5.1-68.2C169.1,239,173.6,233.4,179.7,233.4z"/>
	<path class="st2" d="M288.3,314l-5.1-68.2c-0.5-6.5-5.6-11.7-11.4-11.7v-1.3c6.4,0,12.1,5.8,12.6,12.9l5.1,68.2L288.3,314z"/>
	<path class="st1" d="M211.2,382.4h-40.9c-6.1,0-11-4.9-11-11v-90.2c0-6.1,4.9-11,11-11h40.9c6.1,0,11,4.9,11,11v90.2
		C222.2,377.5,217.2,382.4,211.2,382.4z"/>
	<path class="st1" d="M419.7,334.8H216.2c-3.6,0-6.5-2.9-6.5-6.5v-15.9c0-3.6,2.9-6.5,6.5-6.5h203.4c3.6,0,6.5,2.9,6.5,6.5v15.9
		C426.2,331.9,423.3,334.8,419.7,334.8z"/>
	<path class="st0" d="M311.8,335.5v-1.3c3.1,0,5.5-2.8,5.5-6.2v-15.2c0-3.5-2.5-6.2-5.5-6.2v-1.3c3.8,0,6.8,3.4,6.8,7.5V328
		C318.6,332.1,315.5,335.5,311.8,335.5z"/>
	<path class="st5" d="M192.3,382.4h-40.9c-6.1,0-11-4.9-11-11v-90.2c0-6.1,4.9-11,11-11h40.9c6.1,0,11,4.9,11,11v90.2
		C203.3,377.5,198.4,382.4,192.3,382.4z"/>
	<path class="st5" d="M349.6,229.1c27.3,2.4,31.6,36.8,33.5,49.8s-22.5-0.5-37.8,1s-20.2,7.4-37.2,4.7s-24.1-4.6-35.8-2.7
		s-32.2,2.6-34.4-1c-2-3.4-7.5-39.1-18.3-46.2c-1.7-1.1-1.1-2.8,1.4-3.5C241.6,225,325,226.9,349.6,229.1z"/>
</g>
<g id="freepik--Shadow--inject-79">
	<ellipse id="freepik--path--inject-79" class="st1" cx="250" cy="416.2" rx="193.9" ry="11.3"/>
</g>
<g id="freepik--Heart--inject-79">
	<path class="st7" d="M238.6,34.4C225.5,21,196.1,30.5,207.3,49s36.2,32,41.1,39.1c3.3-14.4,12.6-23.6,18.6-35.7
		S257.3,22.5,238.6,34.4z"/>
	<path class="st8" d="M238.6,34.4C225.5,21,196.1,30.5,207.3,49s36.2,32,41.1,39.1c3.3-14.4,12.6-23.6,18.6-35.7
		S257.3,22.5,238.6,34.4z"/>
</g>
<g id="freepik--Character--inject-79">
	<polygon class="st7" points="287.7,315.6 295.5,315.6 327.9,416.2 325.2,416.2 	"/>
	<polygon class="st7" points="256,315.6 263.8,315.6 276.1,416.2 273.5,416.2 	"/>
	<polygon class="st7" points="210.3,315.6 202.4,315.6 170.1,416.2 172.8,416.2 	"/>
	<polygon class="st7" points="242,315.6 234.1,315.6 221.9,416.2 224.5,416.2 	"/>
	<path class="st7" d="M280.9,337.9c-37.9,0.4-91.7-0.8-115.5-47.4c-16.1-31.6-33.4-98.6,13.9-117.8s119.8,2.5,119.1,39.6
		s38.2,46.2,51,71.5C365.2,315.1,330.8,337.3,280.9,337.9z"/>
	<path class="st9" d="M280.9,337.9c-37.9,0.4-91.7-0.8-115.5-47.4c-16.1-31.6-33.4-98.6,13.9-117.8s119.8,2.5,119.1,39.6
		s38.2,46.2,51,71.5C365.2,315.1,330.8,337.3,280.9,337.9z"/>
	<path class="st10" d="M320.7,302.5c-0.4,5.8-27.7,8.5-61.1,6.2s-54.4-4.1-60.5-17.2c-12.3-26.5-13.9-104,19.4-101.7
		S321.1,296.8,320.7,302.5z"/>
	<path class="st11" d="M270.5,187.6l0.3,1.8l0.3,1.9l0.7,3.9c0.5,2.6,1,5.1,1.6,7.7c1.1,5.1,2.5,10.1,4.2,15
		c0.4,1.2,0.8,2.4,1.3,3.6s0.9,2.4,1.4,3.5s1,2.4,1.4,3.2c0.2,0.4,0.3,0.8,0.4,1s0.1,0.2-0.7-0.2c-0.8-0.4-1.7-0.6-2.6-0.5
		c-0.6,0-1.2,0.2-1.8,0.4c-0.2,0.1-0.5,0.2-0.7,0.4c-0.2,0.1-0.3,0.2-0.5,0.4c-0.3,0.2-0.6,0.5-0.7,0.9c0,0.1,0,0.1,0.1,0.1
		c0.6-0.7,1-1.5,1.4-2.4c1-2.1,1.8-4.8,2.6-7.2l8.4,0.4c0.6,3.1,0.7,6.2,0.6,9.3c-0.1,1.9-0.5,3.8-1.1,5.5c-0.2,0.7-0.5,1.3-0.9,1.9
		c-0.6,0.9-1.3,1.7-2.1,2.4c-0.3,0.2-0.6,0.5-0.9,0.6c-0.4,0.2-0.7,0.4-1.1,0.6c-0.9,0.4-1.8,0.6-2.8,0.6c-1.6,0.1-3.2-0.3-4.6-1.1
		c-1.4-0.8-2.7-1.8-3.8-3c-0.7-0.8-1.3-1.6-1.9-2.4c-0.9-1.3-1.7-2.7-2.4-4.2c-1.4-2.6-2.7-5.4-3.8-8.1c-2.3-5.5-4.1-11.1-5.5-16.8
		c-0.7-2.8-1.3-5.7-1.9-8.6c-0.3-1.4-0.5-2.9-0.7-4.3c-0.1-0.7-0.2-1.5-0.3-2.2s-0.2-1.4-0.3-2.3L270.5,187.6z"/>
	<path class="st12" d="M248.8,184.9c-5.1,9.5,7.7,34.6,7.7,34.6l23-12.5c0,0-1.7-6.6-7.4-19.4C265.9,173.7,255,173.4,248.8,184.9z"
		/>
	<path class="st11" d="M278.6,223.8l0.5-11.3l12.8,4.3c0,0-1.7,10.2-7.2,10.2L278.6,223.8z"/>
	<path class="st11" d="M287.6,204.5l4.2,2.3c1.7,0.9,2.5,2.9,1.9,4.7l-1.8,5.3l-12.8-4.3l3.2-6.3
		C283.3,204.3,285.7,203.5,287.6,204.5C287.6,204.5,287.6,204.5,287.6,204.5z"/>
	<path class="st12" d="M260.9,176.6c-12.8-2.8-26-3.5-39-2.2c-8.4,0.9-15.2,7.4-16.3,15.8c-5.2,39.4-1.9,60.3-2.2,71.1l59.4,5.3
		c-0.5-11.3,0.4-40.7,6-78.5C269.6,182.8,266.1,177.8,260.9,176.6z"/>
	<polygon class="st11" points="309.6,310.5 320.7,310.7 325.5,285.1 314.3,284.8 	"/>
	<path class="st12" d="M322.3,308.8l-11.6-3.7c-0.4-0.1-0.9,0.1-1.1,0.5l-4.1,9.1c-0.4,0.9,0,2,1,2.4c0,0,0.1,0,0.1,0.1
		c4.2,1.2,5.6,1.3,10.9,3c6.1,1.9,8.6,3.4,15.8,5.7c4.4,1.4,6.5-2.8,4.8-3.8c-5.5-3.2-11.6-8.2-13.4-11.6
		C324.1,309.6,323.3,309,322.3,308.8z"/>
	<polygon class="st13" points="325.5,285.1 323,298.3 311.9,298 314.3,284.8 	"/>
	<path class="st7" d="M330.5,218.3c-13.6-6.8-48.2,29.8-92.1,46.2c-0.9,16.7,17.8,25.3,37.8,22.9c19.9-2.4,27.2-13,33.3-27.5
		c-3.4,14.9-0.2,30.4-0.2,30.4l17.3,4.9C326.7,295.2,343,224.5,330.5,218.3z"/>
	<path class="st13" d="M330.5,218.3c-13.6-6.8-48.2,29.8-92.1,46.2c-0.9,16.7,17.8,25.3,37.8,22.9c19.9-2.4,27.2-13,33.3-27.5
		c-3.4,14.9-0.2,30.4-0.2,30.4l17.3,4.9C326.7,295.2,343,224.5,330.5,218.3z"/>
	<polygon class="st12" points="328.7,297.3 306.4,295.3 305.9,287.9 330.8,289.8 	"/>
	<path class="st7" d="M321,308.8c-0.1-0.1-0.1-0.1-0.1-0.2c0-0.1,0.1-0.2,0.2-0.2c0.5-0.2,5.3-1.8,6.5-0.9c0.2,0.2,0.4,0.5,0.3,0.8
		l0,0c0,0.5-0.3,0.9-0.7,1.2C325.9,310.3,322.8,309.4,321,308.8L321,308.8z M327.1,307.8c-0.8-0.4-3.3,0.2-5.2,0.8
		c2.4,0.8,4.2,0.9,5,0.4c0.3-0.2,0.4-0.5,0.4-0.8c0-0.1,0-0.2-0.1-0.3L327.1,307.8z"/>
	<path class="st7" d="M321,308.8L321,308.8c-0.1-0.1-0.2-0.2-0.1-0.3c0-0.1,0.7-3,2.3-4c0.4-0.3,1-0.4,1.5-0.2l0,0
		c0.7,0.2,0.9,0.6,0.9,0.9c0,1.3-3,3.3-4.4,3.7C321.1,308.8,321.1,308.8,321,308.8z M324.8,304.8c-0.1,0-0.2-0.1-0.3-0.1l0,0
		c-0.4-0.1-0.8,0-1.1,0.2c-1,0.6-1.7,2.4-1.9,3.2c1.5-0.6,3.5-2.2,3.5-3C325,305,325,304.9,324.8,304.8L324.8,304.8z"/>
	<path class="st11" d="M252.2,177.1c-6.6-2.9-5.4-6.9-3.2-11.1l-13.8-12.6c0.5,5.5,0.4,14.7-3.4,19.6c-1.3,1.5-1.1,3.8,0.4,5.1
		c4.3,4,9.7,6.7,15.6,7.6c6.7,1.2,8.2-1.6,7.8-4.5C255.2,179.3,253.9,177.8,252.2,177.1z"/>
	<path class="st13" d="M240.8,158.5c-1.5-0.5-1.8,1.5-1.8,4.3s4.8,7.8,8.4,7.4c0.3-1.5,0.9-2.9,1.6-4.2L240.8,158.5z"/>
	<path class="st12" d="M264.9,149.3c3.8-3.7,8.6-13.8,7.6-18.8c-3.9-1.8-8.3-2.3-12.5-1.3c-3.5,1.1-6.8,2.8-9.6,5l6.1,5.2l-0.1,3.5
		l3.4,3.8l-1,3.4c-0.2,0.9,0.2,1.7,1.1,2c0.4,0.1,0.8,0.1,1.2-0.1L264.9,149.3z"/>
	<path class="st11" d="M237.9,136.3c-2.9,10.7-5.1,16.8-1.6,23.9c5.3,10.7,19.8,10.1,25.8,0.4c5.4-8.7,9.1-24.7,0.3-32.2
		c-6.4-5.4-16-4.6-21.4,1.8C239.5,132,238.5,134.1,237.9,136.3z"/>
	<path class="st12" d="M233,142.7c-0.6-6.6-1-11.6-1-17.4c2.9-0.7,7.3-2.7,12-0.5c3.2,1.7,6.1,4,8.6,6.7l-7,4l-0.5,3.5l-4,3.1
		l0.4,3.5c0.1,0.9-0.6,1.7-1.4,1.8c-0.4,0-0.8-0.1-1.1-0.3L233,142.7z"/>
	<path class="st12" d="M272.5,133.8c5.1-2.6,12-15.5,0.1-14.9c-7.7,0.3-17.1,1.4-25.1-3.1c0,0,2.3,4,8.3,4.5c13,1.2,13.4-0.9,17.2,0
		C279.9,121.7,272.5,133.8,272.5,133.8z"/>
	<path class="st12" d="M273.5,122.2c-8.5-4.8-17.9-1.1-25.2-3.8s-15.1,1.6-16.4,7l20.6,6.2c7.8,5.6,9.6,6.8,13.9,5.5
		C272.6,135.2,282.1,127,273.5,122.2z"/>
	<path class="st12" d="M233.7,124.2c-3.7,0.7-5.6,3.9-2.4,8c-1.1-4.4,2.4-5.9,2.4-5.9L233.7,124.2z"/>
	<path class="st11" d="M229.5,144.9c0.5,2.7,2,5.2,4.3,6.8c3,2.1,5.8-0.3,5.9-3.8c0.1-3.1-1.2-8-4.8-8.7S228.9,141.6,229.5,144.9z"
		/>
	<path class="st12" d="M252.2,143.7c-0.3,0.9-0.1,1.7,0.5,1.9s1.2-0.4,1.5-1.2s0.1-1.7-0.5-1.9S252.4,142.8,252.2,143.7z"/>
	<path class="st12" d="M262.5,147.5c-0.3,0.9-0.1,1.7,0.5,1.9s1.2-0.4,1.5-1.2s0.1-1.7-0.5-1.9S262.8,146.7,262.5,147.5z"/>
	<path class="st14" d="M259.3,147c0,0,0.3,5.5,1.6,8.6c-2,0.9-4.3-0.6-4.3-0.6L259.3,147z"/>
	<path class="st12" d="M252.2,156.1c-1.8-0.8-3.3-2.4-3.9-4.4c0-0.1,0-0.3,0.2-0.3s0.3,0,0.3,0.2l0,0c0.8,2.1,2.5,3.8,4.6,4.4
		c0.1,0,0.2,0.2,0.2,0.3c0,0,0,0,0,0c0,0.1-0.2,0.2-0.3,0.2c0,0,0,0,0,0C253,156.4,252.6,156.3,252.2,156.1z"/>
	<path class="st12" d="M250.8,138.5c-0.1,0-0.2-0.1-0.2-0.2c-0.2-0.2-0.1-0.6,0.1-0.7c1.4-1,3.2-1.3,4.8-0.7
		c0.3,0.1,0.4,0.4,0.3,0.7s-0.4,0.4-0.7,0.3l0,0c-1.3-0.4-2.7-0.2-3.8,0.6C251.2,138.6,251,138.6,250.8,138.5z"/>
	<path class="st12" d="M268,144.9c-0.2-0.1-0.3-0.2-0.3-0.4c-0.3-1.3-1.2-2.4-2.4-2.9c-0.3-0.1-0.4-0.4-0.3-0.7
		c0.1-0.3,0.4-0.4,0.7-0.3c1.6,0.6,2.7,2,3.1,3.7c0.1,0.3-0.1,0.6-0.4,0.6C268.2,144.9,268.1,144.9,268,144.9z"/>
	<polygon class="st11" points="347.4,400.4 356.5,394 345.1,370.5 336,376.9 	"/>
	<path class="st12" d="M356.3,390.9l-11.1,4.9c-0.4,0.2-0.6,0.6-0.5,1l2.9,9.6c0.3,1,1.4,1.5,2.3,1.1c0,0,0.1,0,0.1-0.1
		c4-1.8,5.1-2.7,10.1-4.9c5.9-2.6,8.7-3.1,15.6-6.2c4.2-1.9,3-6.4,1.1-6c-6.2,1.2-14.1,1.5-17.7,0.2
		C358.2,390.4,357.2,390.5,356.3,390.9z"/>
	<polygon class="st13" points="345.1,370.5 351,382.6 341.9,389 336,376.9 	"/>
	<path class="st7" d="M295.9,308.8c-75.2-2.4-94-1.7-92.4-47.4l38.2,3.4c0,0,66.6,4.1,74.9,26.3c12.4,33.4,35.1,84.7,35.1,84.7
		l-15,9.9C336.6,385.7,305.8,348.1,295.9,308.8z"/>
	<polygon class="st12" points="355,378.4 335.8,390 331,384.4 352.3,371.1 	"/>
	<path class="st7" d="M355.3,391.8c-0.1,0-0.2,0-0.3-0.1c-0.1-0.1-0.1-0.2,0-0.3c0.3-0.5,2.8-4.9,4.3-5c0.3,0,0.6,0.1,0.8,0.4l0,0
		c0.3,0.4,0.4,0.9,0.3,1.3C359.9,389.7,357,391.1,355.3,391.8L355.3,391.8z M359.2,387c-0.9,0.2-2.4,2.3-3.4,4c2.3-1,3.8-2.1,4-3
		c0.1-0.3,0-0.6-0.2-0.9c-0.1-0.1-0.2-0.2-0.3-0.1L359.2,387z"/>
	<path class="st7" d="M355.3,391.8L355.3,391.8c-0.2,0-0.3-0.1-0.3-0.1c-0.1-0.1-1.5-2.8-0.9-4.5c0.2-0.5,0.5-0.9,1-1.2l0,0
		c0.6-0.3,1-0.1,1.2,0.1c0.9,0.9,0,4.4-0.8,5.7C355.4,391.8,355.3,391.8,355.3,391.8z M355.5,386.3c-0.1,0-0.2,0.1-0.2,0.1l0,0
		c-0.4,0.2-0.6,0.5-0.7,0.9c-0.4,1.1,0.3,2.9,0.7,3.7c0.7-1.4,1.2-4,0.6-4.6C355.8,386.4,355.7,386.3,355.5,386.3L355.5,386.3z"/>
	<path class="st7" d="M291,209.3l-12-0.2c-0.9,0-1.7,0.3-2.3,0.9l-14.9,20c-0.3,0.4-0.3,1,0.1,1.4c0.4,0.4,0.9,0.3,1.6,0.3l11.8,0.2
		c0.9,0,1.7-0.3,2.3-0.9l14.8-19.8C292.9,210.6,292.9,209.3,291,209.3z"/>
	<path class="st11" d="M228.4,187.8l0.2,2.4l0.2,2.5c0.2,1.7,0.4,3.4,0.6,5c0.4,3.4,0.9,6.7,1.4,10c1,6.5,2.6,12.9,4.8,19.1
		c0.5,1.5,1.1,2.9,1.8,4.3c0.3,0.7,0.4,0.9,0.4,1s0.2,0.4,1.1,0.4c1.1,0,2.3-0.1,3.4-0.4c1.4-0.4,2.8-0.9,4.1-1.5
		c1.4-0.6,2.9-1.4,4.3-2.1s2.9-1.6,4.3-2.5c1.4-0.9,2.9-1.8,4.2-2.7l5.8,6c-1.3,1.6-2.5,2.9-3.8,4.3s-2.7,2.7-4.2,3.9
		c-1.5,1.3-3,2.5-4.7,3.6c-1.7,1.2-3.6,2.3-5.5,3.2c-2.2,1.1-4.6,1.8-7,2.1c-1.5,0.2-3,0.2-4.4,0c-1.7-0.2-3.3-0.7-4.8-1.5
		c-1.5-0.8-2.9-1.8-4.1-3c-1-1.1-2-2.3-2.7-3.7c-1-1.8-1.9-3.6-2.7-5.4c-3.1-7-5.4-14.4-6.9-21.9c-0.7-3.7-1.4-7.4-1.8-11.1
		c-0.2-1.9-0.4-3.7-0.6-5.6c-0.1-0.9-0.2-1.9-0.2-2.8s-0.1-1.8-0.1-2.9L228.4,187.8z"/>
	<path class="st12" d="M209.9,182.5c-6.1,8.9,3.9,35.2,3.9,35.2l24.2-10c0,0-1-6.8-5.3-20C228.1,173.2,217.3,171.7,209.9,182.5z"/>
	<path class="st11" d="M257.1,224.8l8.3-7.7l6,12.1c0,0-8.3,6-12.2,2.1L257.1,224.8z"/>
	<path class="st11" d="M277.1,217.5l1.4,4.6c0.6,1.8-0.3,3.8-2,4.6l-5.1,2.5l-6-12.1l6.8-2.2C274.2,214.2,276.4,215.4,277.1,217.5
		C277.1,217.5,277.1,217.5,277.1,217.5z"/>
</g>
</svg>
