<?xml version="1.0" encoding="utf-8"?>
<!-- Generator: Adobe Illustrator 24.0.2, SVG Export Plug-In . SVG Version: 6.00 Build 0)  -->
<svg version="1.1" id="Layer_1" xmlns="http://www.w3.org/2000/svg" xmlns:xlink="http://www.w3.org/1999/xlink" x="0px" y="0px"
	 viewBox="0 0 500 500" style="enable-background:new 0 0 500 500;" xml:space="preserve">
<style type="text/css">
	.st0{fill:#EBEBEB;}
	.st1{fill:#F5F5F5;}
	.st2{fill:#F0F0F0;}
	.st3{fill:#E6E6E6;}
	.st4{fill:#E0E0E0;}
	.st5{fill:#FAFAFA;}
	.st6{fill:#FFFFFF;}
	.st7{opacity:0.5;fill:#E0E0E0;enable-background:new    ;}
	.st8{fill:#407BFF;}
	.st9{opacity:0.5;fill:#FFFFFF;enable-background:new    ;}
	.st10{opacity:0.5;enable-background:new    ;}
	.st11{opacity:0.6;}
	.st12{fill:#263238;}
	.st13{opacity:0.6;fill:#263238;enable-background:new    ;}
	.st14{opacity:0.3;fill:#FFFFFF;enable-background:new    ;}
	.st15{opacity:0.9;fill:#FFFFFF;enable-background:new    ;}
	.st16{opacity:0.4;fill:#FFFFFF;enable-background:new    ;}
	.st17{fill:#FFC3BD;}
	.st18{opacity:0.3;enable-background:new    ;}
	.st19{opacity:0.3;fill:#263238;enable-background:new    ;}
	.st20{opacity:0.2;enable-background:new    ;}
	.st21{fill:#ED847E;}
	.st22{opacity:0.4;enable-background:new    ;}
	.st23{fill:#B55B52;}
	.st24{fill:#B65B52;}
	.st25{fill:#A02724;}
</style>
<g id="freepik--background-complete--inject-144">
	<rect y="382.4" class="st0" width="500" height="0.2"/>
	<rect x="52.5" y="391.9" class="st0" width="16.1" height="0.2"/>
	<rect x="171.1" y="389.2" class="st0" width="53.5" height="0.2"/>
	<rect x="69.5" y="401.2" class="st0" width="36.2" height="0.2"/>
	<rect x="379.1" y="389.1" class="st0" width="43.2" height="0.2"/>
	<rect x="431.2" y="389.1" class="st0" width="6.3" height="0.2"/>
	<rect x="317" y="395.3" class="st0" width="53.9" height="0.2"/>
	<path class="st0" d="M237,337.8H43.9c-3.1,0-5.7-2.6-5.7-5.7V60.7c0-3.1,2.6-5.7,5.7-5.7H237c3.2,0,5.7,2.6,5.7,5.7c0,0,0,0,0,0
		v271.4C242.7,335.2,240.2,337.8,237,337.8z M43.9,55.2c-3,0-5.5,2.4-5.5,5.5v271.4c0,3,2.4,5.5,5.5,5.5H237c3,0,5.5-2.4,5.5-5.5
		V60.7c0-3-2.4-5.5-5.5-5.5H43.9z"/>
	<path class="st0" d="M453.3,337.8H260.2c-3.2,0-5.7-2.6-5.7-5.7V60.7c0-3.1,2.6-5.7,5.7-5.7h193.1c3.1,0,5.7,2.5,5.7,5.7v271.4
		C459,335.2,456.5,337.8,453.3,337.8z M260.2,55.2c-3,0-5.5,2.4-5.5,5.5v271.4c0,3,2.4,5.5,5.5,5.5h193.1c3,0,5.5-2.4,5.5-5.5V60.7
		c0-3-2.4-5.5-5.5-5.5H260.2z"/>
	<rect x="389.7" y="298.8" class="st1" width="6.6" height="83.6"/>
	<rect x="393.5" y="298.8" class="st2" width="5.8" height="83.6"/>
	<rect x="234.8" y="298.8" class="st1" width="6.6" height="83.6"/>
	<rect x="238.6" y="298.8" class="st2" width="5.8" height="83.6"/>
	<rect x="414.9" y="298.8" class="st1" width="6.6" height="83.6"/>
	<rect x="418.6" y="298.8" class="st2" width="5.8" height="83.6"/>
	<rect x="260" y="298.8" class="st1" width="6.6" height="83.6"/>
	<rect x="234.8" y="297.2" class="st2" width="189.6" height="3.2"/>
	<rect x="234.8" y="297.2" class="st3" width="28.9" height="3.2"/>
	<rect x="263.8" y="298.8" class="st2" width="5.8" height="83.6"/>
	<rect x="311.7" y="236.3" class="st0" width="17.9" height="60.9"/>
	<polygon class="st4" points="378.3,297.2 318.7,297.2 309.8,226 369.3,226 	"/>
	<polygon class="st2" points="381.8,297.2 320.3,297.2 311.3,226 372.8,226 	"/>
	<polygon class="st5" points="347.3,297.2 335.3,297.2 338.7,226 350.6,226 	"/>
	<polygon class="st5" points="360.9,297.2 349.2,297.2 352.6,226 364.3,226 	"/>
	<rect x="276.3" y="72.5" class="st3" width="154.6" height="121"/>
	<rect x="278.5" y="72.5" class="st2" width="157.1" height="121"/>
	<rect x="276.3" y="193.5" class="st3" width="154.6" height="4.1"/>
	<rect x="281" y="193.5" class="st2" width="157.1" height="4.1"/>
	<rect x="285" y="79" class="st5" width="144.1" height="108"/>
	<polygon class="st6" points="363.9,187 374.2,79 392.2,79 381.9,187 	"/>
	<polygon class="st6" points="318.4,187 328.8,79 346.8,79 336.4,187 	"/>
	<path class="st2" d="M288,150.4c-0.3,0-0.5-0.2-0.5-0.5V83.2c0-0.3,0.2-0.5,0.5-0.5s0.5,0.2,0.5,0.5v66.7
		C288.5,150.2,288.3,150.4,288,150.4C288,150.4,288,150.4,288,150.4z"/>
	<polygon class="st6" points="385.7,187 396.1,79 403.1,79 392.7,187 	"/>
	<rect x="428.3" y="79" class="st3" width="0.8" height="108"/>
	<polygon class="st7" points="437.1,90.8 282.5,90.8 281.9,81.5 436.5,81.5 	"/>
	<polygon class="st7" points="437.1,106 282.5,106 281.9,96.7 436.5,96.7 	"/>
	<polygon class="st7" points="437.1,121.2 282.5,121.2 281.9,111.9 436.5,111.9 	"/>
	<polygon class="st7" points="437.1,136.4 282.5,136.4 281.9,127.2 436.5,127.2 	"/>
	<polygon class="st7" points="437.1,151.6 282.5,151.6 281.9,142.4 436.5,142.4 	"/>
	<polygon class="st7" points="437.1,166.8 282.5,166.8 281.9,157.6 436.5,157.6 	"/>
	<polygon class="st7" points="437.1,98.4 282.5,98.4 281.9,89.1 436.5,89.1 	"/>
	<polygon class="st7" points="437.1,113.6 282.5,113.6 281.9,104.3 436.5,104.3 	"/>
	<polygon class="st7" points="437.1,128.8 282.5,128.8 281.9,119.5 436.5,119.5 	"/>
	<polygon class="st7" points="437.1,144 282.5,144 281.9,134.8 436.5,134.8 	"/>
	<polygon class="st7" points="437.1,159.2 282.5,159.2 281.9,150 436.5,150 	"/>
	<polygon class="st7" points="437.1,174.4 282.5,174.4 281.9,165.2 436.5,165.2 	"/>
	<path class="st1" d="M120.2,132.6h-21c-2.7,0-4.8-2.2-4.8-4.8v-8.1c0-2.7,2.2-4.8,4.8-4.8h21c2.7,0,4.8,2.2,4.8,4.8v8.1
		C125,130.4,122.9,132.6,120.2,132.6z"/>
	<path class="st1" d="M120.2,114.8h-21c-2.7,0-4.8-2.2-4.8-4.8V102c0-2.7,2.2-4.8,4.8-4.8h21c2.7,0,4.8,2.2,4.8,4.8v8.1
		C125,112.7,122.9,114.8,120.2,114.8z"/>
	<path class="st4" d="M113.3,97.1h-7.3c-0.9,0-1.7-0.7-1.7-1.7v-2.8c0-0.9,0.7-1.7,1.7-1.7h7.3c0.9,0,1.7,0.7,1.7,1.7v2.8
		C115,96.4,114.3,97.1,113.3,97.1z"/>
	<path class="st1" d="M120.2,150.2h-21c-2.7,0-4.8-2.2-4.8-4.8v-8.1c0-2.7,2.2-4.8,4.8-4.8h21c2.7,0,4.8,2.2,4.8,4.8v8.1
		C125,148.1,122.9,150.2,120.2,150.2z"/>
	<path class="st2" d="M210.5,138c0,0-1,12.3-39.9,12.3S130.7,138,130.7,138H210.5z"/>
	<rect x="60.4" y="152.7" class="st2" width="30.8" height="218.2"/>
	<rect x="66.3" y="371" class="st2" width="152" height="11.4"/>
	<rect x="91.2" y="152.7" class="st1" width="133" height="218.2"/>
	<rect x="103.3" y="230.3" class="st2" width="108.8" height="51.5"/>
	<rect x="103.3" y="293.3" class="st2" width="108.8" height="51.5"/>
	<rect x="103.3" y="355.5" class="st2" width="108.8" height="7.9"/>
	<path class="st1" d="M185.4,234.4h-55.3c-2.4,0-4.3-1.9-4.3-4.3l0,0c0-2.4,1.9-4.3,4.3-4.3h55.3c2.4,0,4.3,1.9,4.3,4.3l0,0
		C189.7,232.4,187.8,234.4,185.4,234.4z"/>
	<rect x="103.3" y="167.3" class="st2" width="108.8" height="51.5"/>
	<path class="st1" d="M185.4,171.4h-55.3c-2.4,0-4.3-1.9-4.3-4.3l0,0c0-2.4,1.9-4.3,4.3-4.3h55.3c2.4,0,4.3,1.9,4.3,4.3l0,0
		C189.7,169.5,187.8,171.4,185.4,171.4z"/>
	<path class="st1" d="M185.4,297.4h-55.3c-2.4,0-4.3-1.9-4.3-4.3l0,0c0-2.4,1.9-4.3,4.3-4.3h55.3c2.4,0,4.3,1.9,4.3,4.3l0,0
		C189.7,295.4,187.8,297.4,185.4,297.4z"/>
	<rect x="91.2" y="150.3" class="st2" width="137.1" height="2.5"/>
	<rect x="56.1" y="150.3" class="st3" width="35.1" height="2.5"/>
</g>
<g id="freepik--Shadow--inject-144">
	<ellipse id="freepik--path--inject-144" class="st1" cx="250" cy="416.2" rx="193.9" ry="11.3"/>
</g>
<g id="freepik--Table--inject-144">
	<polygon class="st8" points="442.1,317.1 57.9,317.1 50.9,310.4 449.1,310.4 	"/>
	<polygon class="st9" points="442.1,317.1 57.9,317.1 50.9,310.4 449.1,310.4 	"/>
	<polygon class="st8" points="409.1,320.7 90.9,320.7 85,317.1 415,317.1 	"/>
	<polygon class="st10" points="409.1,320.7 90.9,320.7 85,317.1 415,317.1 	"/>
	<polygon class="st8" points="88.4,416.2 83.8,416.2 98,320.7 108.2,320.7 	"/>
	<polygon class="st10" points="88.4,416.2 83.8,416.2 98,320.7 108.2,320.7 	"/>
	<polygon class="st8" points="113.1,416.2 108.5,416.2 122.7,320.7 132.9,320.7 	"/>
	<polygon class="st10" points="113.1,416.2 108.5,416.2 122.7,320.7 132.9,320.7 	"/>
	<polygon class="st8" points="411.6,416.2 416.2,416.2 402,320.7 391.9,320.7 	"/>
	<polygon class="st10" points="411.6,416.2 416.2,416.2 402,320.7 391.9,320.7 	"/>
	<polygon class="st8" points="386.9,416.2 391.5,416.2 377.3,320.7 367.1,320.7 	"/>
	<polygon class="st10" points="386.9,416.2 391.5,416.2 377.3,320.7 367.1,320.7 	"/>
</g>
<g id="freepik--character-1--inject-144">
	<path class="st8" d="M69.7,306.4h134.8c1.9,0,3.4-1.5,3.5-3.4c0,0,0-0.1,0-0.1l-3.2-96.4c-0.1-2-1.7-3.5-3.7-3.6H66.3
		c-1.9,0-3.4,1.5-3.5,3.4c0,0.1,0,0.1,0,0.2l3.2,96.4C66.1,304.8,67.7,306.4,69.7,306.4z"/>
	<path class="st8" d="M70.8,306.4h134.8c1.9,0,3.4-1.5,3.5-3.4c0,0,0-0.1,0-0.1l-3.2-96.4c-0.1-2-1.7-3.5-3.7-3.6H67.4
		c-1.9,0-3.4,1.5-3.5,3.4c0,0,0,0.1,0,0.1l3.2,96.4C67.2,304.8,68.8,306.4,70.8,306.4z"/>
	<g class="st11">
		<path class="st12" d="M70.8,306.4h134.8c1.9,0,3.4-1.5,3.5-3.4c0,0,0-0.1,0-0.1l-3.2-96.4c-0.1-2-1.7-3.5-3.7-3.6H67.4
			c-1.9,0-3.4,1.5-3.5,3.4c0,0,0,0.1,0,0.1l3.2,96.4C67.2,304.8,68.8,306.4,70.8,306.4z"/>
	</g>
	<path class="st8" d="M72.5,306.2h162.8c1.6,0,3.1,0.9,3.8,2.4c0.3,0.6,0,1.3-0.6,1.6c-0.2,0.1-0.4,0.1-0.5,0.1H69.8
		c-0.7,0-1.2-0.5-1.2-1.2c0-0.2,0-0.4,0.1-0.6C69.4,307.2,70.9,306.2,72.5,306.2z"/>
	<path class="st13" d="M235.3,306.2H105.4c-1.6,0-3.1,0.9-3.8,2.4c-0.3,0.6,0,1.3,0.6,1.6c0.2,0.1,0.4,0.1,0.6,0.1h135.4
		c0.7,0,1.2-0.5,1.2-1.2c0-0.2,0-0.4-0.1-0.5C238.5,307.2,237,306.2,235.3,306.2z"/>
	<path class="st14" d="M157.7,308.9h33.8c0.8,0,1.5,0.7,1.5,1.5h-36.8C156.2,309.6,156.8,308.9,157.7,308.9z"/>
	<path class="st15" d="M205.8,299.4l-3-89.4c0-0.8-0.7-1.4-1.4-1.4H68.5c-0.7,0-1.3,0.6-1.3,1.3c0,0,0,0.1,0,0.1l3,89.4
		c0,0.8,0.7,1.4,1.4,1.4h133C205.3,300.7,205.9,300.1,205.8,299.4C205.8,299.4,205.8,299.4,205.8,299.4z"/>
	<polygon class="st6" points="96.3,300.8 77.9,300.8 99.1,208.6 117.4,208.6 	"/>
	<polygon class="st6" points="107.9,300.8 101.3,300.8 122.5,208.6 129.1,208.6 	"/>
	<polygon class="st6" points="175.4,300.8 168.8,300.8 189.9,208.6 196.5,208.6 	"/>
	<path class="st16" d="M133.8,205.9c0.1,0.6,0.5,1,1.1,1c0.6,0,1-0.4,1-1c0-0.6-0.5-1-1.1-1C134.3,204.9,133.8,205.3,133.8,205.9z"
		/>
	<path class="st17" d="M176.7,196.1c1.8,2.8,3.7,5.9,5.6,8.8s3.9,5.8,5.9,8.6c3.9,5.6,8.1,11.1,12.6,16.2c2.1,2.4,4.4,4.7,6.9,6.7
		l0.9,0.7c0.2,0.2,0.4,0.3,0.6,0.4c0.5,0.3,1.1,0.7,1.6,0.9c1.3,0.7,2.7,1.2,4.2,1.7c1.5,0.5,3.1,1,4.7,1.4s3.3,0.8,5,1.1
		c3.4,0.7,6.9,1.4,10.2,1.9v7c-1.9,0.3-3.7,0.4-5.6,0.6s-3.7,0.2-5.6,0.2c-3.8,0-7.7-0.3-11.5-0.9c-2.1-0.4-4.1-0.9-6.1-1.5
		c-1.1-0.4-2.2-0.8-3.2-1.4c-0.6-0.3-1.1-0.6-1.7-1l-1.3-0.9c-3.2-2.3-6.2-4.9-8.9-7.8c-5.2-5.4-9.9-11.1-14.3-17.2
		c-2.2-3-4.3-6-6.3-9c-2-3.1-4-6.1-5.9-9.4L176.7,196.1z"/>
	<path class="st8" d="M159.9,198c-1,8.8,19.9,29.8,19.9,29.8l14.2-11.8c-4.1-7-8.7-13.8-13.8-20.2C172.2,185.8,161,188.1,159.9,198z
		"/>
	<path class="st18" d="M171.4,204.2c-5.6-6-8.3-7.6-11.5-5.2c0.4,9.3,20,28.7,20,28.7C181.1,217.8,176.1,211.4,171.4,204.2z"/>
	<polygon class="st8" points="192.9,211.9 194.3,216.2 178.5,229.2 175.4,226 	"/>
	<polygon class="st19" points="192.9,211.9 194.3,216.2 178.5,229.2 175.4,226 	"/>
	<path class="st17" d="M234.1,244.4l11,1.9L239,256c-1.4,0.2-7.2-2.9-9.7-6.7L234.1,244.4z"/>
	<polygon class="st17" points="251.8,252.9 247.4,257.8 239,255.9 245,246.3 	"/>
	<path class="st8" d="M171.3,189.6c0,0,12,28.2,3.4,80.8h-50c-0.6-7.7,2.9-45.1-5.7-81.3c5.5-1.1,11.1-1.8,16.7-2.1
		c7.1-0.4,14.2-0.4,21.2,0C161.7,187.5,166.6,188.4,171.3,189.6z"/>
	<path class="st18" d="M130.1,198c1,6-0.3,20.2-5.4,36.6c-0.4-14.1-2-28.2-4.9-42v-0.1C123,192.3,129.1,192.5,130.1,198z"/>
	<path class="st17" d="M136.9,163.1c1.6,6.8,3.4,19.4-1.3,23.9c0,0,2,5.7,14.7,5.7c14,0,6.6-5.7,6.6-5.7c-7.7-1.8-7.7-7.5-6.6-12.8
		L136.9,163.1z"/>
	<path class="st6" d="M151.1,193.2l3,3.2c0.2,0.2,0.2,0.5,0.1,0.7l-1.5,3.1c-0.1,0.2-0.3,0.4-0.6,0.4l-2.3,0.1
		c-0.2,0-0.4-0.1-0.6-0.3l-2.1-3c-0.2-0.2-0.2-0.5,0-0.8l2.9-3.4C150.4,192.9,150.8,192.9,151.1,193.2
		C151.1,193.1,151.1,193.2,151.1,193.2z"/>
	<path class="st12" d="M150.7,192.7c-1.4,2.3-2.3,5-2.4,7.7c0,0-16.2-5.6-15.5-13.7c1.4-0.7,2.8-1.5,4.1-2.4
		C136.9,184.3,137.4,189.4,150.7,192.7z"/>
	<path class="st12" d="M150.7,192.7c1.4,2.2,2.5,4.6,3.1,7.2c0,0,7.5-5.1,5.4-13.2l-4.4-0.9C154.7,185.7,155.6,190.9,150.7,192.7z"
		/>
	<path class="st6" d="M152.5,200.2c1,3.3,8.5,27.9,8.7,33.8c0,0,0,0.1,0,0.1c-0.7,3.2-3.8,8.7-5.1,10.9c-0.1,0.3-0.5,0.3-0.7,0.2
		c-0.1-0.1-0.2-0.1-0.2-0.3c-0.9-2.1-3-7.3-4.4-10.3c0-0.1,0-0.1-0.1-0.2c-0.7-10.8-0.8-27.5-1.2-34.1c0-0.3,0.2-0.5,0.5-0.6
		c0,0,0,0,0,0h1.9C152.2,199.9,152.4,200,152.5,200.2z"/>
	<path class="st20" d="M142.3,167.6l7.9,6.6c-0.3,1.2-0.5,2.5-0.5,3.8c-2.9-0.4-7-3.6-7.4-6.7C142.1,170.1,142.1,168.8,142.3,167.6z
		"/>
	<path class="st12" d="M156.4,142.7c1.9,1.4,5.1,7.4,1,8.9S151.8,139.3,156.4,142.7z"/>
	<path class="st17" d="M134.4,154.9c1.9,9.1,2.5,14.5,7.9,18.7c5.2,4.2,12.8,3.4,17-1.8c1.5-1.9,2.5-4.2,2.6-6.7
		c0.8-8.4-2.5-21.9-12-24.6c-6.5-2-13.3,1.7-15.3,8.1C134,150.6,133.9,152.8,134.4,154.9z"/>
	<path class="st12" d="M135.6,161.7l3.8-2.6l0.2-2.2c0.4-3.2-0.3-6.5-1.7-9.4l0,0c0,0,18.6,0.7,20.9-5.1s-4.2-10.2-4.2-10.2
		s-6.6,3.8-11,4.1s-18-5.2-18,6.2C119.6,144.5,119.8,154.3,135.6,161.7"/>
	<path class="st12" d="M126.2,143.1c0,0-2.5-1.9-0.6-7.9C123.3,136.3,122.3,142.4,126.2,143.1z"/>
	<path class="st17" d="M131.7,165.4c1.5,1.8,3.7,3,6,3.2c3.1,0.3,4-2.5,2.7-5.2c-1.2-2.4-4.3-5.4-7.2-4.5S129.9,163.2,131.7,165.4z"
		/>
	<path class="st12" d="M178.9,300.8h-32c-2.9-17.3-5.2-30.4-5.2-30.4h32.9C174.7,270.4,176.5,283.2,178.9,300.8z"/>
	<path class="st12" d="M125.9,300.8c-0.7-17.3-1.3-30.4-1.3-30.4h32.3c0,0,0.2,13.2,0.2,30.4H125.9z"/>
	<path class="st12" d="M148.7,155.9c0.1,0.8,0.6,1.3,1.1,1.3s0.8-0.7,0.7-1.4s-0.6-1.3-1.1-1.3S148.6,155.1,148.7,155.9z"/>
	<path class="st12" d="M157.2,155c0.1,0.8,0.6,1.3,1.1,1.2s0.8-0.7,0.7-1.4s-0.6-1.3-1.1-1.3S157.1,154.2,157.2,155z"/>
	<path class="st21" d="M154.6,155.6c1.2,2.2,2.7,4.2,4.5,6c-1.1,1.4-3.5,1.1-3.5,1.1L154.6,155.6z"/>
	<path class="st12" d="M152.1,165c0.5,0.1,1,0.1,1.6,0c0.1,0,0.2-0.1,0.2-0.2c0,0,0,0,0,0c0-0.1-0.1-0.2-0.2-0.2
		c-1.9,0.2-3.8-0.4-5.2-1.8c-0.1-0.1-0.2-0.1-0.3,0c-0.1,0.1-0.1,0.2,0,0.3C149.2,164.2,150.6,164.9,152.1,165z"/>
	<path class="st12" d="M145.7,153.5c0.2,0,0.3-0.1,0.4-0.2c0.5-1,1.5-1.6,2.6-1.8c0.2,0,0.4-0.2,0.4-0.5c0-0.2-0.2-0.4-0.5-0.4
		c0,0,0,0,0,0c-1.4,0.1-2.7,1-3.3,2.2c-0.1,0.2-0.1,0.5,0.2,0.6c0,0,0,0,0,0C145.6,153.4,145.6,153.5,145.7,153.5z"/>
	<path class="st12" d="M160.4,151.7c0.1,0,0.2,0,0.3-0.1c0.2-0.1,0.2-0.4,0.1-0.6c-0.8-1.2-2.1-2-3.5-2.1c-0.2,0-0.4,0.2-0.4,0.4
		c0,0.2,0.2,0.4,0.4,0.4c1.1,0.1,2.2,0.7,2.8,1.7C160.1,151.6,160.2,151.7,160.4,151.7z"/>
	<path class="st17" d="M128.5,203.2l-2.2,3.8c-0.7,1.3-1.5,2.7-2.2,4c-1.4,2.7-2.8,5.4-4.1,8.1c-1.3,2.7-2.5,5.4-3.7,8.2
		c-0.5,1.4-1.1,2.7-1.5,4.1l-0.7,2.1l-0.6,2l-0.2,0.5l-0.1,0.3c0,0.1,0,0,0,0.1s0,0.1-0.1,0.2c0,0.4,0,0.8,0,1.2
		c0.1,1.2,0.4,2.4,0.7,3.5c0.9,2.7,1.9,5.4,3.2,8c2.5,5.4,5.6,10.9,8.6,16.3l-5.5,4.3c-2.4-2.4-4.5-4.8-6.6-7.3s-4-5.2-5.9-8
		c-1.9-2.9-3.6-5.9-5-9.1c-0.8-1.8-1.4-3.7-1.8-5.6c-0.2-1.2-0.4-2.4-0.4-3.6c0-0.7,0-1.4,0.2-2.1l0.1-0.5l0.1-0.3l0.1-0.6
		c0.6-3.4,1.5-6.7,2.6-10c1.1-3.2,2.3-6.3,3.6-9.4s2.8-6,4.3-8.9c0.8-1.4,1.6-2.9,2.4-4.3s1.7-2.8,2.6-4.3L128.5,203.2z"/>
	<path class="st8" d="M118.9,189.1c-8.8,1.3-17.9,31.9-17.9,31.9l18.9,10.5c0,0,7.7-14.6,11.3-25.4
		C135.2,194.8,128.4,187.7,118.9,189.1z"/>
	<polygon class="st8" points="101.4,216.7 100.7,221.2 120.1,231.9 122.7,228.2 	"/>
	<polygon class="st19" points="101.4,216.7 100.7,221.2 120.1,231.9 122.7,228.2 	"/>
	<path class="st17" d="M123.2,263.3l9.3-1.6l-4.8,10.8c0,0-8.5,0-8.1-4.4L123.2,263.3z"/>
	<polygon class="st17" points="139.4,267.1 135.1,275.8 127.7,272.4 132.5,261.7 	"/>
</g>
<g id="freepik--character-2--inject-144">
	<path class="st8" d="M430.3,306.4H295.5c-1.9,0-3.4-1.5-3.5-3.4c0,0,0-0.1,0-0.1l3.2-96.4c0.1-2,1.7-3.5,3.7-3.6h134.8
		c1.9,0,3.4,1.5,3.5,3.4c0,0.1,0,0.1,0,0.2l-3.2,96.4C433.9,304.8,432.3,306.4,430.3,306.4z"/>
	<path class="st13" d="M430.3,306.4H295.5c-1.9,0-3.4-1.5-3.5-3.4c0,0,0-0.1,0-0.1l3.2-96.4c0.1-2,1.7-3.5,3.7-3.6h134.8
		c1.9,0,3.4,1.5,3.5,3.4c0,0.1,0,0.1,0,0.2l-3.2,96.4C433.9,304.8,432.3,306.4,430.3,306.4z"/>
	<path class="st8" d="M429.2,306.4H294.4c-1.9,0-3.4-1.5-3.5-3.4c0,0,0-0.1,0-0.1l3.2-96.4c0.1-2,1.7-3.5,3.7-3.6h134.8
		c1.9,0,3.4,1.5,3.5,3.4c0,0,0,0.1,0,0.1l-3.2,96.4C432.8,304.8,431.2,306.4,429.2,306.4z"/>
	<path class="st8" d="M427.5,306.2H264.7c-1.6,0-3.1,0.9-3.8,2.4c-0.3,0.6,0,1.3,0.6,1.6c0.2,0.1,0.4,0.1,0.5,0.1h168.2
		c0.7,0,1.2-0.5,1.2-1.2c0-0.2,0-0.4-0.1-0.6C430.6,307.2,429.1,306.2,427.5,306.2z"/>
	<path class="st13" d="M427.5,306.2h-25c-1.6,0-3.1,0.9-3.9,2.4c-0.3,0.6,0,1.3,0.6,1.6c0.2,0.1,0.4,0.1,0.6,0.1h30.4
		c0.7,0,1.2-0.5,1.2-1.2c0-0.2,0-0.4-0.1-0.6C430.6,307.2,429.1,306.3,427.5,306.2z"/>
	<path class="st20" d="M342.3,308.9h-33.8c-0.8,0-1.5,0.7-1.5,1.5h36.8C343.8,309.6,343.2,308.9,342.3,308.9L342.3,308.9z"/>
	<path class="st15" d="M294.2,299.4l3-89.4c0-0.8,0.7-1.4,1.4-1.4h133c0.7,0,1.3,0.6,1.3,1.3c0,0,0,0,0,0.1l-3,89.4
		c0,0.8-0.7,1.4-1.4,1.4h-133C294.8,300.8,294.2,300.2,294.2,299.4C294.2,299.4,294.2,299.4,294.2,299.4z"/>
	<polygon class="st6" points="388.7,300.8 370.4,300.8 391.5,208.6 409.9,208.6 	"/>
	<polygon class="st6" points="309.1,300.8 302.5,300.8 323.7,208.6 330.2,208.6 	"/>
	<polygon class="st6" points="403.8,300.8 397.1,300.8 418.3,208.6 424.9,208.6 	"/>
	<path class="st22" d="M366.2,205.9c-0.1,0.6-0.5,1-1.1,1c-0.6,0-1-0.4-1-1c0-0.6,0.5-1,1.1-1C365.7,204.9,366.2,205.3,366.2,205.9z
		"/>
	<path class="st23" d="M356.5,163.1c-1.6,6.8-3.4,19.4,1.3,23.9c0,0-2,5.7-14.7,5.7c-14,0-6.5-5.7-6.5-5.7c7.7-1.8,7.7-7.5,6.5-12.8
		L356.5,163.1z"/>
	<path class="st24" d="M376.8,195.6c1,1.5,1.8,2.9,2.6,4.3s1.6,2.9,2.4,4.3c1.5,2.9,3,5.9,4.3,8.9s2.6,6.2,3.6,9.4
		c1.1,3.3,2,6.6,2.6,10l0.1,0.6l0.1,0.3l0.1,0.5c0.1,0.7,0.2,1.4,0.2,2.1c0,1.2-0.1,2.4-0.4,3.6c-0.4,1.9-1,3.8-1.9,5.6
		c-1.4,3.2-3.1,6.2-5,9.1c-1.9,2.8-3.8,5.4-5.9,8c-2.1,2.5-4.3,5-6.6,7.3l-5.5-4.3c3-5.4,6.1-10.8,8.6-16.3c1.2-2.6,2.3-5.3,3.2-8
		c0.4-1.1,0.6-2.3,0.7-3.5c0-0.4,0-0.8,0-1.2c0-0.1,0-0.2-0.1-0.2v-0.1l-0.1-0.3l-0.1-0.5l-0.6-2l-0.7-2.1c-0.5-1.4-1-2.7-1.5-4.1
		c-1.1-2.7-2.4-5.5-3.6-8.2s-2.7-5.4-4.1-8.1c-0.7-1.3-1.4-2.7-2.2-4l-2.2-3.8L376.8,195.6z"/>
	<path class="st12" d="M374.4,189.1c8.8,1.3,17.9,31.9,17.9,31.9l-18.9,10.5c0,0-7.7-14.5-11.3-25.4
		C358.2,194.8,365,187.7,374.4,189.1z"/>
	<path class="st18" d="M368.7,205.9l-1.4,13.1c1.4,3.1,2.8,6,3.9,8.2C371.6,222,371.6,213.5,368.7,205.9z"/>
	<polygon class="st8" points="391.9,216.7 392.7,221.2 373.2,231.9 370.6,228.2 	"/>
	<polygon class="st19" points="391.9,216.7 392.7,221.2 373.2,231.9 370.6,228.2 	"/>
	<path class="st23" d="M370.1,263.3l-9.3-1.6l4.8,10.8c0,0,8.5,0,8.1-4.4L370.1,263.3z"/>
	<polygon class="st23" points="353.9,267.1 358.2,275.8 365.6,272.4 360.8,261.7 	"/>
	<path class="st12" d="M322,189.6c0,0-12,28.2-3.4,80.8h50c0.6-7.7-2.9-45.1,5.7-81.3c-5.5-1.1-11.1-1.8-16.6-2.1
		c-7.1-0.4-14.2-0.4-21.2,0C331.6,187.5,326.8,188.4,322,189.6z"/>
	<path class="st18" d="M316.6,213.7c-0.7,6.3-1.1,12.7-1.1,19.1c6.8-4.4,9.2-14.6,10.2-21.9L316.6,213.7z"/>
	<path class="st24" d="M328.8,203.3c-1.9,3.3-3.8,6.3-5.9,9.4s-4.1,6.1-6.3,9c-4.4,6.1-9.1,11.8-14.3,17.2c-2.7,2.8-5.7,5.4-8.9,7.8
		l-1.3,0.9c-0.6,0.3-1.1,0.7-1.7,1c-1,0.5-2.1,1-3.2,1.4c-2,0.7-4,1.2-6,1.5c-3.8,0.6-7.6,0.9-11.5,0.9c-1.9,0-3.7,0-5.6-0.2
		s-3.7-0.3-5.6-0.6v-7c3.4-0.6,6.9-1.2,10.2-1.9c1.7-0.4,3.4-0.7,5-1.1s3.2-0.9,4.7-1.4c1.4-0.4,2.8-1,4.2-1.7
		c0.6-0.3,1.1-0.6,1.6-0.9c0.2-0.1,0.4-0.3,0.6-0.4l0.9-0.7c2.4-2.1,4.7-4.3,6.9-6.7c4.5-5.2,8.7-10.6,12.6-16.2
		c2-2.8,3.9-5.7,5.9-8.6s3.8-5.9,5.6-8.8L328.8,203.3z"/>
	<path class="st12" d="M333.4,198c1,8.8-18.6,30.1-18.6,30.1L299.3,216c4.1-7,8.7-13.8,13.7-20.2C321.1,185.8,332.3,188.1,333.4,198
		z"/>
	<polygon class="st8" points="300.5,211.9 299,216.2 314.8,229.2 318,226 	"/>
	<polygon class="st19" points="300.5,211.9 299,216.2 314.8,229.2 318,226 	"/>
	<path class="st23" d="M258.6,244.6l-11.1,0.2l4.5,10.4c1.4,0.4,7.5-1.7,10.6-5.2L258.6,244.6z"/>
	<polygon class="st23" points="239.7,250.2 245.8,257.8 251.9,255.2 247.4,244.8 	"/>
	<path class="st12" d="M333.4,155c-0.1,0.8-0.6,1.3-1.1,1.2s-0.8-0.7-0.7-1.4s0.6-1.3,1.1-1.3S333.5,154.2,333.4,155z"/>
	<path class="st25" d="M333.6,155.6c-1.2,2.2-2.7,4.2-4.5,6c1.1,1.4,3.5,1.1,3.5,1.1L333.6,155.6z"/>
	<path class="st12" d="M332.3,161.2c-1.7,0-3.2-2.4-3.5-5.5c-0.3-1.7,0.2-3.5,1.2-4.9c0.3-0.4,0.9-0.7,1.4-0.7l0,0
		c1.7,0,3.2,2.4,3.5,5.5l0,0c0.3,1.7-0.1,3.5-1.1,4.9C333.4,160.9,332.9,161.1,332.3,161.2L332.3,161.2z M331.4,150.6L331.4,150.6
		c-0.4,0-0.8,0.2-1,0.5c-0.9,1.3-1.3,2.9-1,4.5c0.2,2.7,1.6,5,3,5l0,0c0.4,0,0.8-0.2,1-0.5c0.9-1.3,1.3-2.9,1-4.5
		C334.1,152.9,332.8,150.6,331.4,150.6L331.4,150.6z"/>
	<path class="st12" d="M336,151.7c0.1,0,0.2,0,0.3-0.1c0.2-0.1,0.3-0.4,0.1-0.6c0,0,0,0,0,0c-0.8-1.2-2.1-2-3.5-2.1
		c-0.2,0-0.4,0.2-0.5,0.4c0,0.2,0.2,0.4,0.4,0.4c1.1,0.1,2.2,0.7,2.8,1.7C335.8,151.6,335.9,151.7,336,151.7z"/>
	<path class="st23" d="M358.9,154.9c-1.9,9.1-2.5,14.5-7.9,18.7c-5.2,4.2-12.8,3.4-17-1.9c-1.5-1.9-2.5-4.2-2.6-6.7
		c-0.8-8.4,2.5-21.9,12-24.6c6.5-2,13.3,1.7,15.3,8.1C359.3,150.6,359.4,152.8,358.9,154.9z"/>
	<path class="st8" d="M371.4,300.8c0.5-10.2-0.4-20.4-2.6-30.4h-32.3c2.5,9.9,3.7,20.1,3.7,30.4H371.4z"/>
	<path class="st14" d="M371.4,300.8c0.5-10.2-0.4-20.4-2.6-30.4h-32.3c2.5,9.9,3.7,20.1,3.7,30.4H371.4z"/>
	<path class="st12" d="M339.2,157.6c-1.8-0.9-4-9.8-3.4-12.9s7.8-6.6,14.8-5.3s10.1,3.8,11.5,10.2c1.4,6.7-3.7,17.8-6.3,18.6
		c-3,1.1-6.4,0.8-9.2-0.8C344.3,166,343.1,155.8,339.2,157.6z"/>
	<path class="st12" d="M337.3,147.9c-3.4,0.2-6.7-5.3-3.6-10.2c1.9-2.8,5.2-4.3,8.6-3.8c0,0-1.4,2.8,3.4,2.2s13.7,0.8,16.9,4.1
		c3.9,4.1,1.5,12.3-4.3,10.3S337.3,147.9,337.3,147.9z"/>
	<path class="st12" d="M336.4,148c-1.5-0.1-2.8-0.8-3.7-1.9c-1.8-2.2-2.3-5.2-1.1-7.9c0.1-0.1,0.2-0.2,0.3-0.1
		c0.1,0.1,0.2,0.2,0.1,0.3c-1.1,2.4-0.7,5.3,1,7.3c0.9,1.3,2.5,1.9,4.1,1.6c0.1,0,0.3,0.1,0.3,0.2c0,0.1,0,0.3-0.2,0.3
		C337,148,336.7,148,336.4,148z"/>
	<path class="st23" d="M344.8,156.5c0.1,2.4-0.6,4.7-2.1,6.5c-2,2.4-4.7,0.9-5.5-1.9c-0.7-2.6-0.6-6.9,2.1-8.2
		S344.6,153.6,344.8,156.5z"/>
	<path class="st8" d="M314.5,300.8h35.8c1.7-10,2.2-20.2,1.3-30.4h-32.9C318.7,270.4,316.8,283.2,314.5,300.8z"/>
	<path class="st14" d="M314.5,300.8h35.8c1.7-10,2.2-20.2,1.3-30.4h-32.9C318.7,270.4,316.8,283.2,314.5,300.8z"/>
</g>
</svg>
